<svg width="544" height="584" viewBox="0 0 544 584" fill="none" xmlns="http://www.w3.org/2000/svg">
<g clip-path="url(#clip0_303_75)">
<path d="M325.441 548.567H186.072C184.452 548.565 182.899 547.983 181.753 546.948C180.607 545.913 179.963 544.509 179.961 543.045V454.989C179.963 453.524 180.607 452.121 181.753 451.086C182.899 450.05 184.452 449.468 186.072 449.466H325.441C327.061 449.468 328.614 450.05 329.76 451.086C330.906 452.121 331.55 453.524 331.552 454.989V543.045C331.55 544.509 330.905 545.913 329.76 546.948C328.614 547.983 327.061 548.565 325.441 548.567V548.567Z" fill="#FFF2E8"/>
<path d="M97.684 319.025C98.6184 317.944 99.2792 316.691 99.62 315.355C99.9607 314.019 99.973 312.631 99.6561 311.29C99.3392 309.949 98.7007 308.686 97.7857 307.592C96.8706 306.498 95.7012 305.599 94.3599 304.957L93.4816 220.717L76.059 227.942L79.8912 309.415C78.848 311.523 78.6966 313.903 79.4658 316.105C80.2349 318.307 81.8711 320.177 84.0643 321.362C86.2575 322.546 88.8554 322.963 91.3656 322.532C93.8758 322.101 96.1239 320.853 97.684 319.025V319.025Z" fill="#9E616A"/>
<path d="M97.2147 199.389C97.2147 199.389 80.2664 191.959 77.9225 205.977C75.5786 219.994 65.9376 256.475 65.9376 256.475L95.1931 254.606L97.2147 199.389Z" fill="#9E616A"/>
<path d="M97.684 319.025C98.6184 317.944 99.2792 316.691 99.62 315.355C99.9607 314.019 99.973 312.631 99.6561 311.29C99.3392 309.949 98.7007 308.686 97.7857 307.592C96.8706 306.498 95.7012 305.599 94.3599 304.957L93.4816 220.717L76.059 227.942L79.8912 309.415C78.848 311.523 78.6966 313.903 79.4658 316.105C80.2349 318.307 81.8711 320.177 84.0643 321.362C86.2575 322.546 88.8554 322.963 91.3656 322.532C93.8758 322.101 96.1239 320.853 97.684 319.025V319.025Z" fill="#9E616A"/>
<path d="M97.2147 199.389C97.2147 199.389 80.2664 191.959 77.9225 205.977C75.5786 219.994 65.9376 256.475 65.9376 256.475L95.1931 254.606L97.2147 199.389Z" fill="#FC8019"/>
<path d="M48.1418 523.894C47.4575 523.923 46.78 523.76 46.2012 523.429C45.6224 523.098 45.1703 522.614 44.906 522.043C44.6417 521.472 44.5781 520.841 44.7238 520.236C44.8695 519.631 45.2174 519.081 45.7204 518.661C45.8047 518.359 45.8651 518.141 45.9494 517.839C45.9192 517.773 45.8889 517.707 45.8584 517.641C45.169 516.17 44.0138 514.915 42.5379 514.035C41.062 513.155 39.3312 512.688 37.5629 512.694C35.7947 512.7 34.0678 513.178 32.5992 514.068C31.1305 514.958 29.9857 516.221 29.3084 517.697C26.6016 523.588 23.1553 529.49 22.3068 535.719C21.933 538.473 22.0907 541.264 22.7727 543.969C16.4151 531.436 13.1138 517.814 13.0925 504.027C13.0912 500.568 13.3039 497.11 13.7296 493.672C14.0815 490.854 14.5696 488.055 15.194 485.277C18.6016 470.201 25.9177 456.071 36.5416 444.046C41.6836 441.511 45.8419 437.612 48.4564 432.875C49.4035 431.172 50.0729 429.355 50.4437 427.479C49.8637 427.547 49.2742 427.59 48.6942 427.625C48.5134 427.633 48.3233 427.642 48.1426 427.65L48.0744 427.653C47.4369 427.679 46.8048 427.538 46.254 427.246C45.7033 426.955 45.2575 426.526 44.9702 426.011C44.683 425.496 44.5665 424.917 44.6349 424.344C44.7034 423.771 44.9537 423.227 45.3558 422.78C45.6063 422.501 45.8569 422.223 46.1076 421.944C46.488 421.515 46.8779 421.094 47.2582 420.664C47.3021 420.623 47.3434 420.58 47.3819 420.535C47.8193 420.045 48.2567 419.564 48.6942 419.074C47.8957 417.954 46.8218 417.016 45.5562 416.333C41.1725 414.013 35.1248 415.62 31.9583 419.203C28.7823 422.787 28.1833 427.814 29.2862 432.291C30.371 436.1 32.1653 439.715 34.5923 442.981C34.3545 443.256 34.1073 443.522 33.8696 443.797C29.5239 448.847 25.7364 454.269 22.5613 459.987C23.3334 453.582 22.4118 447.102 19.8724 441.082C17.2986 435.471 12.4745 430.745 8.22629 425.894C3.1235 420.068 -7.34021 422.611 -8.23921 429.997C-8.24792 430.068 -8.2564 430.14 -8.26469 430.211C-7.63369 430.533 -7.01602 430.874 -6.41168 431.235C-5.65247 431.694 -5.06419 432.349 -4.72392 433.115C-4.38364 433.88 -4.30727 434.721 -4.50477 435.527C-4.70227 436.332 -5.16445 437.065 -5.83075 437.629C-6.49705 438.194 -7.3364 438.563 -8.23882 438.688L-8.33123 438.701C-8.10644 440.756 -7.70908 442.793 -7.14262 444.794C-5.50119 450.379 -2.60065 455.598 1.3772 460.123C5.35504 464.648 10.3244 468.381 15.9737 471.089C16.3446 471.261 16.706 471.433 17.0768 471.596C13.8868 479.766 11.8858 488.276 11.1242 496.912C10.693 502.007 10.7185 507.125 11.2003 512.216L11.1717 512.036C9.95447 506.375 6.61254 501.266 1.71026 497.574C-5.57085 492.168 -15.8577 490.178 -23.7127 485.833C-24.5475 485.349 -25.5182 485.09 -26.5102 485.088C-27.5023 485.086 -28.4743 485.34 -29.3117 485.821C-30.1492 486.302 -30.817 486.989 -31.2365 487.801C-31.656 488.614 -31.8096 489.517 -31.6793 490.406C-31.6688 490.469 -31.6581 490.533 -31.6472 490.596C-30.4762 491.027 -29.3361 491.523 -28.2335 492.082C-27.6025 492.404 -26.9848 492.746 -26.3805 493.107C-25.6213 493.565 -25.033 494.22 -24.6927 494.986C-24.3524 495.752 -24.276 496.592 -24.4735 497.398C-24.6711 498.204 -25.1332 498.936 -25.7995 499.501C-26.4658 500.065 -27.3052 500.434 -28.2076 500.56L-28.3001 500.573C-28.3666 500.581 -28.4237 500.59 -28.4901 500.598C-26.4894 504.915 -23.6813 508.889 -20.1889 512.345C-15.8745 516.529 -10.6601 519.872 -4.86518 522.17C0.929703 524.468 7.18287 525.672 13.5109 525.708H13.5204C15.2382 532.454 17.7271 539.02 20.947 545.3H47.477C47.5721 545.034 47.6577 544.759 47.7433 544.493C45.2876 544.632 42.8223 544.499 40.4023 544.097C42.3707 541.915 44.339 539.715 46.3074 537.532C46.3513 537.491 46.3925 537.448 46.431 537.403C47.4294 536.286 48.4374 535.178 49.4358 534.061L49.4364 534.059C49.4896 530.635 49.0547 527.219 48.1426 523.895L48.1418 523.894Z" fill="#FFF2E8"/>
<path d="M439.272 523.894C438.588 523.923 437.91 523.76 437.331 523.429C436.753 523.098 436.301 522.614 436.036 522.043C435.772 521.472 435.708 520.841 435.854 520.236C436 519.631 436.348 519.081 436.851 518.661C436.935 518.359 436.995 518.141 437.08 517.839C437.049 517.773 437.019 517.707 436.989 517.641C436.299 516.17 435.144 514.915 433.668 514.035C432.192 513.155 430.461 512.688 428.693 512.694C426.925 512.7 425.198 513.178 423.729 514.068C422.261 514.958 421.116 516.221 420.439 517.697C417.732 523.588 414.286 529.49 413.437 535.719C413.063 538.473 413.221 541.264 413.903 543.969C407.545 531.436 404.244 517.814 404.223 504.027C404.221 500.568 404.434 497.11 404.86 493.672C405.212 490.854 405.7 488.055 406.324 485.277C409.732 470.201 417.048 456.071 427.672 444.046C432.814 441.511 436.972 437.612 439.587 432.875C440.534 431.172 441.203 429.355 441.574 427.479C440.994 427.547 440.404 427.59 439.824 427.625C439.644 427.633 439.454 427.642 439.273 427.65L439.205 427.653C438.567 427.679 437.935 427.538 437.384 427.246C436.834 426.955 436.388 426.526 436.1 426.011C435.813 425.496 435.697 424.917 435.765 424.344C435.834 423.771 436.084 423.227 436.486 422.78C436.737 422.501 436.987 422.223 437.238 421.944C437.618 421.515 438.008 421.094 438.388 420.664C438.432 420.623 438.474 420.58 438.512 420.535C438.949 420.045 439.387 419.564 439.824 419.074C439.026 417.954 437.952 417.016 436.686 416.333C432.303 414.013 426.255 415.62 423.088 419.203C419.912 422.787 419.313 427.814 420.416 432.291C421.501 436.1 423.295 439.715 425.722 442.981C425.485 443.256 425.237 443.522 425 443.797C420.654 448.847 416.867 454.269 413.691 459.987C414.464 453.582 413.542 447.102 411.003 441.082C408.429 435.471 403.605 430.745 399.356 425.894C394.254 420.068 383.79 422.611 382.891 429.997C382.882 430.068 382.874 430.14 382.865 430.211C383.496 430.533 384.114 430.874 384.719 431.235C385.478 431.694 386.066 432.349 386.406 433.115C386.747 433.88 386.823 434.721 386.625 435.527C386.428 436.332 385.966 437.065 385.299 437.629C384.633 438.194 383.794 438.563 382.891 438.688L382.799 438.701C383.024 440.756 383.421 442.793 383.988 444.794C385.629 450.379 388.53 455.598 392.507 460.123C396.485 464.648 401.455 468.381 407.104 471.089C407.475 471.261 407.836 471.433 408.207 471.596C405.017 479.766 403.016 488.276 402.254 496.912C401.823 502.007 401.849 507.125 402.33 512.216L402.302 512.036C401.085 506.375 397.743 501.266 392.84 497.574C385.559 492.168 375.273 490.178 367.418 485.833C366.583 485.349 365.612 485.09 364.62 485.088C363.628 485.086 362.656 485.34 361.819 485.821C360.981 486.302 360.313 486.989 359.894 487.801C359.474 488.614 359.321 489.517 359.451 490.406C359.461 490.469 359.472 490.533 359.483 490.596C360.654 491.027 361.794 491.523 362.897 492.082C363.528 492.404 364.145 492.746 364.75 493.107C365.509 493.565 366.097 494.22 366.438 494.986C366.778 495.752 366.854 496.592 366.657 497.398C366.459 498.204 365.997 498.936 365.331 499.501C364.664 500.065 363.825 500.434 362.923 500.56L362.83 500.573C362.764 500.581 362.707 500.59 362.64 500.598C364.641 504.915 367.449 508.889 370.941 512.345C375.256 516.529 380.47 519.872 386.265 522.17C392.06 524.468 398.313 525.672 404.641 525.708H404.651C406.368 532.454 408.857 539.02 412.077 545.3H438.607C438.702 545.034 438.788 544.759 438.873 544.493C436.418 544.632 433.952 544.499 431.532 544.097C433.501 541.915 435.469 539.715 437.438 537.532C437.482 537.491 437.523 537.448 437.561 537.403C438.56 536.286 439.568 535.178 440.566 534.061L440.567 534.059C440.62 530.635 440.185 527.219 439.273 523.895L439.272 523.894Z" fill="#FFF2E8"/>
<path d="M337.108 545.144C337.032 545.144 336.956 545.142 336.879 545.141C334.938 545.04 333.114 544.267 331.788 542.982C330.461 541.697 329.734 540 329.758 538.243C329.758 527.551 321.307 521.314 312.931 519.876C304.556 518.439 294.163 521.44 289.825 531.388L285.881 540.335C282.471 543.409 277.851 545.136 273.034 545.136C268.218 545.136 263.598 543.409 260.188 540.335L259.954 540.124L260.099 539.856L329.758 411.06V407.904C329.661 406.931 329.662 405.952 329.759 404.979L329.758 80.592C329.758 79.7028 329.955 78.8227 330.339 78.0038C330.722 77.185 331.284 76.4441 331.99 75.825C332.696 75.206 333.533 74.7215 334.45 74.4003C335.368 74.079 336.348 73.9275 337.331 73.9548C339.272 74.0551 341.096 74.8281 342.423 76.113C343.75 77.3978 344.477 79.0955 344.453 80.8527V405.016C344.55 405.989 344.549 406.968 344.451 407.941L344.453 411.059L414.256 540.124L414.023 540.335C410.613 543.409 405.993 545.136 401.176 545.136C396.36 545.136 391.74 543.409 388.33 540.335L388.226 540.193L384.386 531.388C380.048 521.441 369.656 518.442 361.28 519.876C352.904 521.314 344.453 527.551 344.453 538.243V538.504C344.453 540.264 343.679 541.953 342.302 543.198C340.925 544.443 339.057 545.143 337.108 545.144L337.108 545.144Z" fill="#9F9F9E"/>
<path d="M209.593 309.247H209.594H464.617V308.761L464.618 309.247C467.699 309.243 470.662 308.136 472.855 306.155C475.049 304.172 476.295 301.471 476.298 298.643V298.642V137.513V137.512C476.295 134.684 475.049 131.983 472.855 130C470.662 128.019 467.699 126.911 464.618 126.908H464.617L209.594 126.908L209.593 126.908C206.511 126.911 203.548 128.018 201.355 130C199.161 131.983 197.915 134.684 197.912 137.512V137.513L197.912 298.642L197.912 298.643C197.916 301.471 199.161 304.172 201.356 306.155C203.548 308.136 206.512 309.244 209.593 309.247Z" fill="#FFF2E8" stroke="#FC8019"/>
<path d="M464.617 310H209.594C206.261 309.997 203.067 308.799 200.711 306.67C198.354 304.541 197.029 301.654 197.025 298.643V137.513C197.029 134.501 198.354 131.615 200.71 129.485C203.067 127.356 206.261 126.158 209.594 126.155H464.617C467.949 126.158 471.144 127.356 473.5 129.485C475.856 131.615 477.182 134.502 477.185 137.513V298.643C477.181 301.654 475.856 304.541 473.5 306.67C471.144 308.799 467.949 309.997 464.617 310V310ZM209.594 128.662C206.997 128.664 204.507 129.598 202.671 131.257C200.835 132.916 199.802 135.166 199.799 137.513V298.643C199.802 300.989 200.835 303.239 202.671 304.898C204.507 306.557 206.997 307.491 209.594 307.493H464.617C467.214 307.491 469.703 306.557 471.539 304.898C473.376 303.239 474.408 300.989 474.411 298.643V137.513C474.409 135.166 473.376 132.916 471.54 131.257C469.703 129.598 467.214 128.664 464.617 128.662H209.594Z" fill="#FFF2E8"/>
<path d="M374.812 137.483H299.399C294.618 137.478 290.034 135.759 286.653 132.704C283.273 129.649 281.371 125.506 281.366 121.186V120.89H392.845V121.186C392.84 125.506 390.938 129.649 387.557 132.704C384.176 135.759 379.593 137.478 374.812 137.483V137.483Z" fill="#9F9F9E"/>
<path d="M375.139 318.821H299.727C294.946 318.816 290.362 317.098 286.981 314.042C283.601 310.987 281.699 306.845 281.694 302.524V302.228H393.173V302.524C393.167 306.845 391.266 310.987 387.885 314.042C384.504 317.098 379.92 318.816 375.139 318.821V318.821Z" fill="#9F9F9E"/>
<path d="M476 548C476 547.869 475.985 547.738 475.954 547.617C475.924 547.495 475.88 547.385 475.824 547.292C475.767 547.199 475.701 547.125 475.627 547.075C475.554 547.025 475.475 547 475.396 547H197.604C197.444 547 197.29 547.105 197.177 547.293C197.064 547.48 197 547.735 197 548C197 548.265 197.064 548.52 197.177 548.707C197.29 548.895 197.444 549 197.604 549H475.396C475.475 549 475.554 548.975 475.627 548.925C475.701 548.875 475.767 548.801 475.824 548.708C475.88 548.615 475.924 548.505 475.954 548.383C475.985 548.262 476 548.131 476 548V548Z" fill="#CCCCCC"/>
<path d="M138.387 522.826H151.717L158.058 476.361L138.384 476.362L138.387 522.826Z" fill="#9E616A"/>
<path d="M133.872 516.884L154.945 515.747V523.906L174.978 536.41C175.968 537.027 176.713 537.914 177.105 538.942C177.497 539.969 177.516 541.083 177.158 542.12C176.8 543.158 176.085 544.065 175.116 544.709C174.147 545.352 172.976 545.7 171.774 545.7H146.687L142.363 537.629L140.674 545.7H131.215L133.872 516.884Z" fill="#2F2E41"/>
<path d="M93.0517 264.381L91.746 270.004L90.6355 290.749L135.245 285.29L138.671 261.27L133.935 254.239L93.0517 264.381Z" fill="#9E616A"/>
<path d="M70.9246 522.826H84.2545L90.5958 476.361L70.9218 476.362L70.9246 522.826Z" fill="#9E616A"/>
<path d="M63.6927 440.736L63.6923 440.612L68.682 419.561L71.7588 409.081L63.2063 347.723C61.1926 303.144 89.8109 281.715 90.0361 281.505L90.6567 280.922L136.553 279.907C161.247 293.277 158.451 366.409 162.973 416.144C163.296 419.69 167.348 424.925 166.352 428.299C158.45 455.06 160.765 484.001 154.745 484.857L136.288 484.625L126.755 445.528L135.554 415.708C131.652 415.058 128.955 397.816 128.955 397.816C127.254 395.991 121.384 380.472 121.384 380.472L113.556 337.514L100.98 411.402L104.008 428.736L101.502 434.696L90.7682 483.902L90.6541 484.695L70.4176 482.869L63.6927 440.736Z" fill="#2F2E41"/>
<path d="M66.4105 516.884L87.4826 515.747V523.906L107.516 536.41C108.506 537.027 109.251 537.914 109.643 538.942C110.035 539.969 110.054 541.083 109.696 542.12C109.338 543.158 108.623 544.065 107.654 544.709C106.686 545.352 105.514 545.7 104.312 545.7H79.2248L74.9007 537.629L73.2123 545.7H63.7535L66.4105 516.884Z" fill="#2F2E41"/>
<path d="M129.854 183.255L141.106 194.552L154.62 217.571L147.981 245.955L150.884 259.275L155.169 273.917C138.656 282.172 119.039 270.771 101.018 265.707L83.287 272.787L84.2246 253.299L84.7054 204.198C84.7239 202.312 85.1711 200.45 86.0193 198.727C86.8674 197.003 88.0984 195.456 89.6359 194.181C91.1734 192.906 92.9845 191.93 94.9568 191.313C96.9291 190.697 99.0206 190.454 101.101 190.598V190.598L112.978 182.69L129.854 183.255Z" fill="#FC8019"/>
<path d="M126.703 177.341C139.805 177.341 150.427 167.742 150.427 155.902C150.427 144.061 139.805 134.462 126.703 134.462C113.6 134.462 102.979 144.061 102.979 155.902C102.979 167.742 113.6 177.341 126.703 177.341Z" fill="#9E616A"/>
<path d="M154.62 148.164C154.202 150.265 144.214 151.279 144.515 147.542C142.572 151.06 139.668 156.167 143.367 162.016C141.918 163.442 141.005 165.245 140.759 167.168C140.513 169.092 140.946 171.036 141.997 172.723C143.049 174.269 143.931 175.905 144.629 177.607C144.77 178.02 144.871 178.443 144.93 178.872C144.989 179.303 144.92 179.741 144.728 180.139C144.535 180.538 144.228 180.882 143.838 181.136C143.448 181.39 142.99 181.545 142.511 181.584C142.032 181.623 141.551 181.544 141.117 181.357C131.056 176.904 113.512 177.659 102.505 180.376C102.579 178.441 102.549 176.51 102.417 174.584C102.016 176.993 100.94 179.269 99.2935 181.198C97.409 181.701 95.5611 182.225 93.7719 182.742C93.4991 182.821 93.2074 182.833 92.9278 182.775C92.6483 182.717 92.3914 182.592 92.1845 182.412C91.9776 182.233 91.8285 182.006 91.7529 181.756C91.6773 181.506 91.6782 181.242 91.7554 180.992C92.1042 179.848 92.1693 178.649 91.9461 177.48C91.4914 175.055 90.1422 172.861 89.1889 170.562C88.2356 168.262 87.693 165.618 88.8589 163.398C90.6701 159.953 95.7738 158.899 98.0249 155.672C100.555 152.047 98.5896 147.322 98.9855 143.048C99.5428 137.004 105.02 132.094 111.195 129.722C121.886 125.613 135.261 128.941 143.276 136.535C144.4 135.849 145.713 135.458 147.068 135.405C148.423 135.352 149.768 135.64 150.953 136.236C153.322 137.383 155.023 137.979 156.086 140.212C157.017 142.174 155.045 146.057 154.62 148.164Z" fill="#2F2E41"/>
<path d="M144.429 400.285L88.6129 349.844C87.9648 349.257 87.6009 348.462 87.6008 347.632C87.6008 346.803 87.9648 346.008 88.6129 345.421L127.637 310.155C128.287 309.569 129.167 309.24 130.084 309.24C131.002 309.24 131.882 309.569 132.532 310.155L188.348 360.596C188.996 361.183 189.36 361.978 189.36 362.808C189.36 363.637 188.996 364.432 188.348 365.019L149.324 400.285C148.674 400.871 147.794 401.2 146.877 401.2C145.959 401.2 145.079 400.871 144.429 400.285V400.285Z" fill="white"/>
<path d="M146.877 402.035C146.301 402.037 145.73 401.935 145.198 401.736C144.666 401.537 144.182 401.245 143.776 400.876L87.9591 350.435C87.1375 349.691 86.676 348.684 86.676 347.633C86.676 346.582 87.1375 345.574 87.9591 344.831L126.983 309.564C127.806 308.822 128.922 308.405 130.085 308.405C131.247 308.405 132.363 308.822 133.186 309.564L189.002 360.005C189.824 360.749 190.285 361.757 190.285 362.808C190.285 363.858 189.824 364.866 189.002 365.61L149.978 400.876C149.571 401.245 149.088 401.537 148.556 401.736C148.023 401.935 147.453 402.037 146.877 402.035ZM130.084 310.076C129.751 310.075 129.421 310.133 129.113 310.248C128.806 310.363 128.526 310.532 128.291 310.746L89.2666 346.012C88.7919 346.442 88.5253 347.025 88.5253 347.633C88.5253 348.24 88.7919 348.823 89.2666 349.253L145.083 399.694C145.567 400.11 146.209 400.342 146.877 400.342C147.544 400.342 148.186 400.11 148.67 399.694L187.694 364.428C188.169 363.998 188.436 363.415 188.436 362.808C188.436 362.2 188.169 361.617 187.694 361.187L131.878 310.746C131.643 310.533 131.363 310.363 131.055 310.248C130.747 310.133 130.417 310.075 130.084 310.076V310.076Z" fill="#E6E6E6"/>
<path d="M123.399 314.847C122.464 313.766 121.804 312.513 121.463 311.177C121.122 309.841 121.11 308.453 121.427 307.112C121.744 305.77 122.382 304.508 123.297 303.414C124.212 302.32 125.382 301.421 126.723 300.779L127.601 216.539L145.024 223.764L141.192 305.237C142.235 307.345 142.386 309.725 141.617 311.927C140.848 314.129 139.212 315.999 137.019 317.184C134.825 318.368 132.227 318.785 129.717 318.354C127.207 317.923 124.959 316.675 123.399 314.847V314.847Z" fill="#9E616A"/>
<path d="M123.868 195.211C123.868 195.211 140.816 187.781 143.16 201.799C145.504 215.816 155.145 252.297 155.145 252.297L125.89 250.428L123.868 195.211Z" fill="#9E616A"/>
<path d="M123.399 314.847C122.464 313.766 121.804 312.513 121.463 311.177C121.122 309.841 121.11 308.453 121.427 307.112C121.744 305.77 122.382 304.508 123.297 303.414C124.212 302.32 125.382 301.421 126.723 300.779L127.601 216.539L145.024 223.764L141.192 305.237C142.235 307.345 142.386 309.725 141.617 311.927C140.848 314.129 139.212 315.999 137.019 317.184C134.825 318.368 132.227 318.785 129.717 318.354C127.207 317.923 124.959 316.675 123.399 314.847V314.847Z" fill="#9E616A"/>
<path d="M123.868 195.211C123.868 195.211 140.816 187.781 143.16 201.799C145.504 215.816 155.145 252.297 155.145 252.297L125.89 250.428L123.868 195.211Z" fill="#FC8019"/>
<path d="M274.876 207.33V200.064L293.094 171.364H299.358V181.42H295.651L284.166 199.595V199.936H310.054V207.33H274.876ZM295.821 215V205.114L295.991 201.896V171.364H304.642V215H295.821ZM333.31 215.959C329.646 215.945 326.492 215.043 323.85 213.253C321.222 211.463 319.198 208.871 317.778 205.476C316.371 202.081 315.675 197.997 315.69 193.224C315.69 188.466 316.393 184.411 317.799 181.058C319.219 177.706 321.244 175.156 323.871 173.409C326.513 171.648 329.66 170.767 333.31 170.767C336.961 170.767 340.1 171.648 342.728 173.409C345.37 175.17 347.401 177.727 348.822 181.08C350.242 184.418 350.945 188.466 350.931 193.224C350.931 198.011 350.221 202.102 348.8 205.497C347.394 208.892 345.377 211.484 342.749 213.274C340.121 215.064 336.975 215.959 333.31 215.959ZM333.31 208.31C335.81 208.31 337.806 207.053 339.298 204.538C340.789 202.024 341.528 198.253 341.513 193.224C341.513 189.915 341.173 187.159 340.491 184.957C339.823 182.756 338.871 181.101 337.636 179.993C336.414 178.885 334.972 178.331 333.31 178.331C330.825 178.331 328.836 179.574 327.344 182.06C325.853 184.545 325.1 188.267 325.086 193.224C325.086 196.577 325.42 199.375 326.087 201.619C326.769 203.849 327.728 205.526 328.964 206.648C330.2 207.756 331.648 208.31 333.31 208.31ZM356.849 207.33V200.064L375.066 171.364H381.331V181.42H377.623L366.139 199.595V199.936H392.027V207.33H356.849ZM377.794 215V205.114L377.964 201.896V171.364H386.615V215H377.794Z" fill="black"/>
<path d="M274.876 207.33H273.876V208.33H274.876V207.33ZM274.876 200.064L274.032 199.528L273.876 199.773V200.064H274.876ZM293.094 171.364V170.364H292.544L292.249 170.828L293.094 171.364ZM299.358 171.364H300.358V170.364H299.358V171.364ZM299.358 181.42V182.42H300.358V181.42H299.358ZM295.651 181.42V180.42H295.1L294.805 180.886L295.651 181.42ZM284.166 199.595L283.321 199.061L283.166 199.306V199.595H284.166ZM284.166 199.936H283.166V200.936H284.166V199.936ZM310.054 199.936H311.054V198.936H310.054V199.936ZM310.054 207.33V208.33H311.054V207.33H310.054ZM295.821 215H294.821V216H295.821V215ZM295.821 205.114L294.822 205.061L294.821 205.087V205.114H295.821ZM295.991 201.896L296.99 201.949L296.991 201.923V201.896H295.991ZM295.991 171.364V170.364H294.991V171.364H295.991ZM304.642 171.364H305.642V170.364H304.642V171.364ZM304.642 215V216H305.642V215H304.642ZM275.876 207.33V200.064H273.876V207.33H275.876ZM275.721 200.6L293.938 171.9L292.249 170.828L274.032 199.528L275.721 200.6ZM293.094 172.364H299.358V170.364H293.094V172.364ZM298.358 171.364V181.42H300.358V171.364H298.358ZM299.358 180.42H295.651V182.42H299.358V180.42ZM294.805 180.886L283.321 199.061L285.012 200.129L296.496 181.955L294.805 180.886ZM283.166 199.595V199.936H285.166V199.595H283.166ZM284.166 200.936H310.054V198.936H284.166V200.936ZM309.054 199.936V207.33H311.054V199.936H309.054ZM310.054 206.33H274.876V208.33H310.054V206.33ZM296.821 215V205.114H294.821V215H296.821ZM296.82 205.167L296.99 201.949L294.993 201.843L294.822 205.061L296.82 205.167ZM296.991 201.896V171.364H294.991V201.896H296.991ZM295.991 172.364H304.642V170.364H295.991V172.364ZM303.642 171.364V215H305.642V171.364H303.642ZM304.642 214H295.821V216H304.642V214ZM333.31 215.959L333.306 216.959H333.31V215.959ZM323.85 213.253L323.287 214.079L323.289 214.081L323.85 213.253ZM317.778 205.476L316.854 205.859L316.855 205.862L317.778 205.476ZM315.69 193.224L316.69 193.227V193.224H315.69ZM317.799 181.058L316.878 180.668L316.877 180.671L317.799 181.058ZM323.871 173.409L324.425 174.242L324.426 174.241L323.871 173.409ZM342.728 173.409L342.171 174.24L342.173 174.241L342.728 173.409ZM348.822 181.08L347.901 181.47L347.902 181.471L348.822 181.08ZM350.931 193.224L349.931 193.221V193.224H350.931ZM348.8 205.497L347.878 205.111L347.877 205.114L348.8 205.497ZM342.749 213.274L343.312 214.101L343.312 214.101L342.749 213.274ZM339.298 204.538L340.158 205.049L340.158 205.049L339.298 204.538ZM341.513 193.224L340.513 193.224L340.513 193.227L341.513 193.224ZM340.491 184.957L339.534 185.248L339.536 185.253L340.491 184.957ZM337.636 179.993L336.964 180.734L336.968 180.737L337.636 179.993ZM327.344 182.06L326.487 181.545L326.487 181.545L327.344 182.06ZM325.086 193.224L324.086 193.222V193.224H325.086ZM326.087 201.619L325.129 201.904L325.131 201.912L326.087 201.619ZM328.964 206.648L328.292 207.388L328.296 207.392L328.964 206.648ZM333.314 214.959C329.818 214.945 326.865 214.087 324.411 212.425L323.289 214.081C326.119 215.998 329.473 216.944 333.306 216.959L333.314 214.959ZM324.413 212.426C321.969 210.762 320.058 208.335 318.7 205.09L316.855 205.862C318.338 209.406 320.475 212.164 323.287 214.079L324.413 212.426ZM318.702 205.093C317.359 201.851 316.676 197.906 316.69 193.227L314.69 193.221C314.675 198.089 315.384 202.311 316.854 205.859L318.702 205.093ZM316.69 193.224C316.69 188.56 317.38 184.643 318.721 181.445L316.877 180.671C315.406 184.178 314.69 188.372 314.69 193.224H316.69ZM318.72 181.448C320.076 178.248 321.984 175.865 324.425 174.242L323.318 172.576C320.503 174.448 318.363 177.164 316.878 180.668L318.72 181.448ZM324.426 174.241C326.88 172.605 329.827 171.767 333.31 171.767V169.767C329.493 169.767 326.147 170.69 323.317 172.577L324.426 174.241ZM333.31 171.767C336.794 171.767 339.732 172.605 342.171 174.24L343.285 172.578C340.468 170.69 337.128 169.767 333.31 169.767V171.767ZM342.173 174.241C344.63 175.879 346.545 178.27 347.901 181.47L349.742 180.689C348.257 177.184 346.11 174.462 343.283 172.577L342.173 174.241ZM347.902 181.471C349.255 184.652 349.945 188.558 349.931 193.221L351.931 193.227C351.946 188.374 351.229 184.183 349.742 180.688L347.902 181.471ZM349.931 193.224C349.931 197.917 349.234 201.869 347.878 205.111L349.723 205.883C351.207 202.335 351.931 198.106 351.931 193.224H349.931ZM347.877 205.114C346.533 208.358 344.629 210.784 342.186 212.448L343.312 214.101C346.125 212.185 348.255 209.426 349.724 205.88L347.877 205.114ZM342.186 212.448C339.749 214.108 336.806 214.959 333.31 214.959V216.959C337.144 216.959 340.494 216.02 343.312 214.101L342.186 212.448ZM333.31 209.31C336.229 209.31 338.522 207.806 340.158 205.049L338.438 204.028C337.09 206.3 335.392 207.31 333.31 207.31V209.31ZM340.158 205.049C341.786 202.304 342.528 198.316 342.513 193.222L340.513 193.227C340.528 198.189 339.792 201.744 338.438 204.028L340.158 205.049ZM342.513 193.224C342.513 189.854 342.167 186.991 341.446 184.662L339.536 185.253C340.178 187.327 340.513 189.975 340.513 193.224H342.513ZM341.448 184.667C340.747 182.355 339.718 180.517 338.303 179.248L336.968 180.737C338.025 181.685 338.9 183.156 339.534 185.248L341.448 184.667ZM338.307 179.252C336.9 177.976 335.219 177.331 333.31 177.331V179.331C334.726 179.331 335.928 179.794 336.964 180.734L338.307 179.252ZM333.31 177.331C330.409 177.331 328.124 178.817 326.487 181.545L328.202 182.574C329.548 180.33 331.24 179.331 333.31 179.331V177.331ZM326.487 181.545C324.858 184.26 324.1 188.196 324.086 193.222L326.086 193.227C326.1 188.338 326.848 184.831 328.202 182.574L326.487 181.545ZM324.086 193.224C324.086 196.635 324.425 199.537 325.129 201.904L327.046 201.334C326.415 199.213 326.086 196.518 326.086 193.224H324.086ZM325.131 201.912C325.846 204.249 326.88 206.106 328.292 207.388L329.636 205.907C328.576 204.945 327.693 203.45 327.044 201.327L325.131 201.912ZM328.296 207.392C329.716 208.665 331.402 209.31 333.31 209.31V207.31C331.894 207.31 330.683 206.846 329.631 205.903L328.296 207.392ZM356.849 207.33H355.849V208.33H356.849V207.33ZM356.849 200.064L356.005 199.528L355.849 199.773V200.064H356.849ZM375.066 171.364V170.364H374.517L374.222 170.828L375.066 171.364ZM381.331 171.364H382.331V170.364H381.331V171.364ZM381.331 181.42V182.42H382.331V181.42H381.331ZM377.623 181.42V180.42H377.072L376.778 180.886L377.623 181.42ZM366.139 199.595L365.293 199.061L365.139 199.306V199.595H366.139ZM366.139 199.936H365.139V200.936H366.139V199.936ZM392.027 199.936H393.027V198.936H392.027V199.936ZM392.027 207.33V208.33H393.027V207.33H392.027ZM377.794 215H376.794V216H377.794V215ZM377.794 205.114L376.795 205.061L376.794 205.087V205.114H377.794ZM377.964 201.896L378.963 201.949L378.964 201.923V201.896H377.964ZM377.964 171.364V170.364H376.964V171.364H377.964ZM386.615 171.364H387.615V170.364H386.615V171.364ZM386.615 215V216H387.615V215H386.615ZM357.849 207.33V200.064H355.849V207.33H357.849ZM357.693 200.6L375.911 171.9L374.222 170.828L356.005 199.528L357.693 200.6ZM375.066 172.364H381.331V170.364H375.066V172.364ZM380.331 171.364V181.42H382.331V171.364H380.331ZM381.331 180.42H377.623V182.42H381.331V180.42ZM376.778 180.886L365.293 199.061L366.984 200.129L378.469 181.955L376.778 180.886ZM365.139 199.595V199.936H367.139V199.595H365.139ZM366.139 200.936H392.027V198.936H366.139V200.936ZM391.027 199.936V207.33H393.027V199.936H391.027ZM392.027 206.33H356.849V208.33H392.027V206.33ZM378.794 215V205.114H376.794V215H378.794ZM378.792 205.167L378.963 201.949L376.966 201.843L376.795 205.061L378.792 205.167ZM378.964 201.896V171.364H376.964V201.896H378.964ZM377.964 172.364H386.615V170.364H377.964V172.364ZM385.615 171.364V215H387.615V171.364H385.615ZM386.615 214H377.794V216H386.615V214Z" fill="#FC8019"/>
<path d="M261.264 251V236.455H267.003C268.106 236.455 269.046 236.665 269.822 237.087C270.599 237.503 271.191 238.083 271.598 238.827C272.01 239.565 272.216 240.418 272.216 241.384C272.216 242.349 272.008 243.202 271.591 243.94C271.174 244.679 270.571 245.254 269.78 245.666C268.994 246.078 268.042 246.284 266.925 246.284H263.267V243.82H266.428C267.019 243.82 267.507 243.718 267.891 243.514C268.279 243.306 268.568 243.019 268.757 242.655C268.951 242.286 269.048 241.862 269.048 241.384C269.048 240.901 268.951 240.479 268.757 240.119C268.568 239.755 268.279 239.473 267.891 239.274C267.502 239.071 267.01 238.969 266.413 238.969H264.339V251H261.264ZM276.974 251.206C276.278 251.206 275.658 251.085 275.114 250.844C274.569 250.598 274.138 250.235 273.821 249.757C273.509 249.274 273.352 248.673 273.352 247.953C273.352 247.347 273.464 246.838 273.686 246.426C273.909 246.014 274.212 245.683 274.595 245.432C274.979 245.181 275.414 244.991 275.902 244.864C276.394 244.736 276.911 244.646 277.45 244.594C278.085 244.527 278.596 244.466 278.984 244.409C279.373 244.348 279.654 244.258 279.83 244.139C280.005 244.021 280.092 243.846 280.092 243.614V243.571C280.092 243.121 279.95 242.773 279.666 242.527C279.387 242.281 278.989 242.158 278.473 242.158C277.929 242.158 277.495 242.278 277.173 242.52C276.851 242.757 276.638 243.055 276.534 243.415L273.736 243.188C273.878 242.525 274.157 241.952 274.574 241.469C274.991 240.981 275.528 240.607 276.186 240.347C276.849 240.081 277.616 239.949 278.487 239.949C279.093 239.949 279.673 240.02 280.227 240.162C280.786 240.304 281.281 240.524 281.712 240.822C282.147 241.121 282.491 241.504 282.741 241.973C282.992 242.437 283.118 242.993 283.118 243.642V251H280.249V249.487H280.163C279.988 249.828 279.754 250.129 279.46 250.389C279.167 250.645 278.814 250.846 278.402 250.993C277.99 251.135 277.514 251.206 276.974 251.206ZM277.841 249.118C278.286 249.118 278.679 249.03 279.02 248.855C279.361 248.675 279.628 248.434 279.822 248.131C280.017 247.828 280.114 247.484 280.114 247.101V245.943C280.019 246.005 279.889 246.062 279.723 246.114C279.562 246.161 279.38 246.206 279.176 246.249C278.973 246.286 278.769 246.322 278.565 246.355C278.362 246.384 278.177 246.41 278.011 246.433C277.656 246.485 277.346 246.568 277.081 246.682C276.816 246.795 276.61 246.949 276.463 247.143C276.316 247.333 276.243 247.57 276.243 247.854C276.243 248.266 276.392 248.58 276.69 248.798C276.993 249.011 277.377 249.118 277.841 249.118ZM290.38 255.318C289.4 255.318 288.559 255.183 287.859 254.913C287.163 254.648 286.609 254.286 286.197 253.827C285.785 253.367 285.517 252.851 285.394 252.278L288.192 251.902C288.278 252.12 288.413 252.323 288.597 252.513C288.782 252.702 289.026 252.854 289.329 252.967C289.637 253.086 290.011 253.145 290.451 253.145C291.109 253.145 291.651 252.984 292.077 252.662C292.508 252.345 292.724 251.812 292.724 251.064V249.068H292.596C292.463 249.371 292.264 249.658 291.999 249.928C291.734 250.197 291.393 250.418 290.977 250.588C290.56 250.759 290.063 250.844 289.485 250.844C288.666 250.844 287.92 250.654 287.248 250.276C286.58 249.892 286.048 249.307 285.65 248.521C285.257 247.731 285.06 246.732 285.06 245.524C285.06 244.288 285.262 243.256 285.664 242.428C286.067 241.599 286.602 240.979 287.269 240.567C287.942 240.155 288.678 239.949 289.478 239.949C290.089 239.949 290.6 240.053 291.012 240.261C291.424 240.465 291.755 240.721 292.006 241.028C292.262 241.331 292.459 241.63 292.596 241.923H292.71V240.091H295.714V251.107C295.714 252.035 295.487 252.811 295.032 253.436C294.577 254.061 293.948 254.53 293.143 254.842C292.343 255.16 291.422 255.318 290.38 255.318ZM290.444 248.571C290.932 248.571 291.344 248.45 291.68 248.209C292.021 247.963 292.281 247.612 292.461 247.158C292.646 246.698 292.738 246.149 292.738 245.51C292.738 244.871 292.648 244.317 292.468 243.848C292.288 243.375 292.028 243.008 291.687 242.747C291.346 242.487 290.932 242.357 290.444 242.357C289.947 242.357 289.528 242.491 289.187 242.761C288.846 243.027 288.588 243.396 288.413 243.869C288.237 244.343 288.15 244.89 288.15 245.51C288.15 246.14 288.237 246.684 288.413 247.143C288.593 247.598 288.851 247.951 289.187 248.202C289.528 248.448 289.947 248.571 290.444 248.571ZM303.093 251.213C301.971 251.213 301.005 250.986 300.195 250.531C299.39 250.072 298.77 249.423 298.335 248.585C297.899 247.742 297.681 246.746 297.681 245.595C297.681 244.473 297.899 243.488 298.335 242.641C298.77 241.793 299.383 241.133 300.174 240.659C300.969 240.186 301.902 239.949 302.972 239.949C303.692 239.949 304.362 240.065 304.982 240.297C305.607 240.524 306.152 240.867 306.616 241.327C307.085 241.786 307.449 242.364 307.71 243.06C307.97 243.751 308.1 244.561 308.1 245.489V246.32H298.888V244.445H305.252C305.252 244.009 305.157 243.623 304.968 243.287C304.779 242.951 304.516 242.688 304.18 242.499C303.848 242.304 303.462 242.207 303.022 242.207C302.563 242.207 302.156 242.314 301.8 242.527C301.45 242.735 301.175 243.017 300.977 243.372C300.778 243.723 300.676 244.113 300.671 244.544V246.327C300.671 246.866 300.771 247.333 300.969 247.726C301.173 248.119 301.46 248.422 301.829 248.635C302.198 248.848 302.636 248.955 303.143 248.955C303.479 248.955 303.787 248.907 304.066 248.812C304.345 248.718 304.585 248.576 304.783 248.386C304.982 248.197 305.134 247.965 305.238 247.69L308.036 247.875C307.894 248.547 307.603 249.134 307.163 249.636C306.727 250.134 306.164 250.522 305.472 250.801C304.786 251.076 303.993 251.213 303.093 251.213ZM326.926 236.455V251H324.27L317.942 241.845H317.836V251H314.76V236.455H317.459L323.738 245.602H323.865V236.455H326.926ZM334.339 251.213C333.236 251.213 332.282 250.979 331.477 250.51C330.677 250.036 330.059 249.378 329.624 248.536C329.188 247.688 328.97 246.705 328.97 245.588C328.97 244.461 329.188 243.476 329.624 242.634C330.059 241.786 330.677 241.128 331.477 240.659C332.282 240.186 333.236 239.949 334.339 239.949C335.443 239.949 336.394 240.186 337.195 240.659C338 241.128 338.62 241.786 339.055 242.634C339.491 243.476 339.709 244.461 339.709 245.588C339.709 246.705 339.491 247.688 339.055 248.536C338.62 249.378 338 250.036 337.195 250.51C336.394 250.979 335.443 251.213 334.339 251.213ZM334.354 248.869C334.856 248.869 335.275 248.727 335.611 248.443C335.947 248.154 336.2 247.761 336.371 247.264C336.546 246.767 336.634 246.201 336.634 245.567C336.634 244.932 336.546 244.366 336.371 243.869C336.2 243.372 335.947 242.979 335.611 242.69C335.275 242.402 334.856 242.257 334.354 242.257C333.847 242.257 333.421 242.402 333.075 242.69C332.734 242.979 332.476 243.372 332.301 243.869C332.131 244.366 332.045 244.932 332.045 245.567C332.045 246.201 332.131 246.767 332.301 247.264C332.476 247.761 332.734 248.154 333.075 248.443C333.421 248.727 333.847 248.869 334.354 248.869ZM347.479 240.091V242.364H340.909V240.091H347.479ZM342.401 237.477H345.426V247.648C345.426 247.927 345.469 248.145 345.554 248.301C345.639 248.453 345.758 248.559 345.909 248.621C346.065 248.682 346.245 248.713 346.449 248.713C346.591 248.713 346.733 248.701 346.875 248.678C347.017 248.649 347.126 248.628 347.202 248.614L347.678 250.865C347.526 250.912 347.313 250.967 347.038 251.028C346.764 251.095 346.43 251.135 346.037 251.149C345.308 251.178 344.669 251.08 344.119 250.858C343.575 250.635 343.151 250.29 342.848 249.821C342.545 249.352 342.396 248.76 342.401 248.045V237.477ZM354.135 251V236.455H363.766V238.99H357.211V242.456H363.127V244.991H357.211V251H354.135ZM369.906 251.213C368.803 251.213 367.849 250.979 367.044 250.51C366.243 250.036 365.626 249.378 365.19 248.536C364.754 247.688 364.537 246.705 364.537 245.588C364.537 244.461 364.754 243.476 365.19 242.634C365.626 241.786 366.243 241.128 367.044 240.659C367.849 240.186 368.803 239.949 369.906 239.949C371.009 239.949 371.961 240.186 372.761 240.659C373.566 241.128 374.186 241.786 374.622 242.634C375.057 243.476 375.275 244.461 375.275 245.588C375.275 246.705 375.057 247.688 374.622 248.536C374.186 249.378 373.566 250.036 372.761 250.51C371.961 250.979 371.009 251.213 369.906 251.213ZM369.92 248.869C370.422 248.869 370.841 248.727 371.177 248.443C371.513 248.154 371.767 247.761 371.937 247.264C372.112 246.767 372.2 246.201 372.2 245.567C372.2 244.932 372.112 244.366 371.937 243.869C371.767 243.372 371.513 242.979 371.177 242.69C370.841 242.402 370.422 242.257 369.92 242.257C369.413 242.257 368.987 242.402 368.642 242.69C368.301 242.979 368.043 243.372 367.868 243.869C367.697 244.366 367.612 244.932 367.612 245.567C367.612 246.201 367.697 246.767 367.868 247.264C368.043 247.761 368.301 248.154 368.642 248.443C368.987 248.727 369.413 248.869 369.92 248.869ZM384.238 246.355V240.091H387.264V251H384.359V249.018H384.245C383.999 249.658 383.59 250.171 383.017 250.56C382.449 250.948 381.755 251.142 380.936 251.142C380.207 251.142 379.565 250.976 379.011 250.645C378.457 250.313 378.024 249.842 377.711 249.232C377.404 248.621 377.247 247.889 377.243 247.037V240.091H380.268V246.497C380.273 247.141 380.446 247.65 380.787 248.024C381.127 248.398 381.584 248.585 382.157 248.585C382.522 248.585 382.863 248.502 383.18 248.337C383.497 248.166 383.753 247.915 383.947 247.584C384.146 247.252 384.243 246.843 384.238 246.355ZM392.71 244.693V251H389.684V240.091H392.567V242.016H392.695C392.937 241.381 393.342 240.879 393.91 240.51C394.478 240.136 395.167 239.949 395.977 239.949C396.734 239.949 397.395 240.115 397.958 240.446C398.522 240.777 398.96 241.251 399.272 241.866C399.585 242.477 399.741 243.206 399.741 244.054V251H396.715V244.594C396.72 243.926 396.549 243.405 396.204 243.031C395.858 242.652 395.382 242.463 394.776 242.463C394.369 242.463 394.009 242.551 393.697 242.726C393.389 242.901 393.147 243.157 392.972 243.493C392.802 243.824 392.714 244.224 392.71 244.693ZM406.145 251.178C405.317 251.178 404.566 250.964 403.894 250.538C403.226 250.107 402.696 249.475 402.303 248.642C401.915 247.804 401.721 246.777 401.721 245.56C401.721 244.31 401.922 243.27 402.324 242.442C402.727 241.608 403.262 240.986 403.929 240.574C404.602 240.157 405.338 239.949 406.138 239.949C406.749 239.949 407.258 240.053 407.665 240.261C408.077 240.465 408.408 240.721 408.659 241.028C408.915 241.331 409.109 241.63 409.242 241.923H409.334V236.455H412.353V251H409.37V249.253H409.242C409.1 249.556 408.899 249.857 408.638 250.155C408.382 250.448 408.049 250.692 407.637 250.886C407.23 251.08 406.732 251.178 406.145 251.178ZM407.104 248.77C407.592 248.77 408.004 248.637 408.34 248.372C408.681 248.102 408.941 247.726 409.121 247.243C409.306 246.76 409.398 246.194 409.398 245.545C409.398 244.897 409.308 244.333 409.128 243.855C408.948 243.377 408.688 243.008 408.347 242.747C408.006 242.487 407.592 242.357 407.104 242.357C406.607 242.357 406.188 242.491 405.847 242.761C405.506 243.031 405.248 243.405 405.073 243.884C404.898 244.362 404.81 244.916 404.81 245.545C404.81 246.18 404.898 246.741 405.073 247.229C405.253 247.712 405.511 248.09 405.847 248.365C406.188 248.635 406.607 248.77 407.104 248.77Z" fill="black"/>
</g>
<defs>
<clipPath id="clip0_303_75">
<rect width="697" height="617" fill="white"/>
</clipPath>
</defs>
</svg>
