<svg width="562" height="535" viewBox="0 0 562 535" fill="none" xmlns="http://www.w3.org/2000/svg">
<path d="M357.441 475.567H218.072C216.452 475.565 214.899 474.983 213.753 473.948C212.607 472.913 211.963 471.509 211.961 470.045V381.989C211.963 380.524 212.607 379.121 213.753 378.086C214.899 377.05 216.452 376.468 218.072 376.466H357.441C359.061 376.468 360.614 377.05 361.76 378.086C362.906 379.121 363.55 380.524 363.552 381.989V470.045C363.55 471.509 362.905 472.913 361.76 473.948C360.614 474.983 359.061 475.565 357.441 475.567V475.567Z" fill="#FFF2E8"/>
<path d="M129.684 246.025C130.618 244.944 131.279 243.691 131.62 242.355C131.961 241.019 131.973 239.631 131.656 238.29C131.339 236.949 130.701 235.686 129.786 234.592C128.871 233.498 127.701 232.599 126.36 231.957L125.482 147.717L108.059 154.942L111.891 236.415C110.848 238.523 110.697 240.903 111.466 243.105C112.235 245.307 113.871 247.177 116.064 248.362C118.258 249.546 120.855 249.963 123.366 249.532C125.876 249.101 128.124 247.853 129.684 246.025V246.025Z" fill="#9E616A"/>
<path d="M129.215 126.389C129.215 126.389 112.266 118.959 109.922 132.977C107.579 146.994 97.9376 183.475 97.9376 183.475L127.193 181.606L129.215 126.389Z" fill="#9E616A"/>
<path d="M129.684 246.025C130.618 244.944 131.279 243.691 131.62 242.355C131.961 241.019 131.973 239.631 131.656 238.29C131.339 236.949 130.701 235.686 129.786 234.592C128.871 233.498 127.701 232.599 126.36 231.957L125.482 147.717L108.059 154.942L111.891 236.415C110.848 238.523 110.697 240.903 111.466 243.105C112.235 245.307 113.871 247.177 116.064 248.362C118.258 249.546 120.855 249.963 123.366 249.532C125.876 249.101 128.124 247.853 129.684 246.025V246.025Z" fill="#9E616A"/>
<path d="M129.215 126.389C129.215 126.389 112.266 118.959 109.922 132.977C107.579 146.994 97.9376 183.475 97.9376 183.475L127.193 181.606L129.215 126.389Z" fill="#FC8019"/>
<path d="M80.1418 450.894C79.4575 450.923 78.78 450.76 78.2012 450.429C77.6224 450.098 77.1703 449.614 76.906 449.043C76.6417 448.472 76.5781 447.841 76.7238 447.236C76.8695 446.631 77.2174 446.081 77.7204 445.661C77.8047 445.359 77.8651 445.141 77.9494 444.839C77.9192 444.773 77.8889 444.707 77.8584 444.641C77.169 443.17 76.0138 441.915 74.5379 441.035C73.062 440.155 71.3312 439.688 69.5629 439.694C67.7947 439.7 66.0678 440.178 64.5992 441.068C63.1305 441.958 61.9857 443.221 61.3084 444.697C58.6016 450.588 55.1553 456.49 54.3068 462.719C53.933 465.473 54.0907 468.264 54.7727 470.969C48.4151 458.436 45.1138 444.814 45.0925 431.027C45.0912 427.568 45.3039 424.111 45.7296 420.672C46.0815 417.854 46.5696 415.055 47.194 412.277C50.6016 397.201 57.9177 383.071 68.5416 371.046C73.6836 368.511 77.8419 364.612 80.4564 359.875C81.4035 358.172 82.0729 356.355 82.4437 354.479C81.8637 354.547 81.2742 354.59 80.6942 354.625C80.5134 354.633 80.3233 354.642 80.1426 354.65L80.0744 354.653C79.4369 354.679 78.8048 354.538 78.254 354.247C77.7033 353.955 77.2575 353.526 76.9702 353.011C76.683 352.496 76.5665 351.917 76.6349 351.344C76.7034 350.771 76.9537 350.227 77.3558 349.78C77.6063 349.501 77.8569 349.223 78.1076 348.945C78.488 348.515 78.8779 348.094 79.2582 347.664C79.3021 347.623 79.3434 347.58 79.3819 347.535C79.8193 347.045 80.2567 346.564 80.6942 346.074C79.8957 344.954 78.8218 344.016 77.5562 343.333C73.1725 341.013 67.1248 342.62 63.9583 346.203C60.7823 349.787 60.1833 354.814 61.2862 359.291C62.371 363.1 64.1653 366.715 66.5923 369.981C66.3545 370.256 66.1073 370.522 65.8696 370.797C61.5239 375.847 57.7364 381.269 54.5613 386.987C55.3334 380.582 54.4118 374.102 51.8724 368.082C49.2986 362.471 44.4745 357.745 40.2263 352.894C35.1235 347.068 24.6598 349.611 23.7608 356.997C23.7521 357.068 23.7436 357.14 23.7353 357.211C24.3663 357.533 24.984 357.874 25.5883 358.236C26.3475 358.694 26.9358 359.349 27.2761 360.115C27.6164 360.88 27.6927 361.721 27.4952 362.527C27.2977 363.332 26.8356 364.065 26.1692 364.629C25.5029 365.194 24.6636 365.563 23.7612 365.688L23.6688 365.701C23.8936 367.756 24.2909 369.793 24.8574 371.794C26.4988 377.379 29.3994 382.598 33.3772 387.123C37.355 391.648 42.3244 395.381 47.9737 398.089C48.3446 398.261 48.706 398.433 49.0768 398.596C45.8868 406.766 43.8858 415.276 43.1242 423.912C42.693 429.007 42.7185 434.125 43.2003 439.217L43.1717 439.036C41.9545 433.375 38.6125 428.266 33.7103 424.574C26.4292 419.168 16.1423 417.178 8.28727 412.833C7.45247 412.349 6.48181 412.09 5.48977 412.088C4.49772 412.086 3.52566 412.34 2.68825 412.821C1.85085 413.302 1.18303 413.989 0.763535 414.801C0.344045 415.614 0.190397 416.517 0.320705 417.406C0.33124 417.469 0.341937 417.533 0.352817 417.596C1.52377 418.027 2.66386 418.523 3.7665 419.082C4.3975 419.404 5.01517 419.746 5.61951 420.107C6.37873 420.565 6.96703 421.22 7.30731 421.986C7.64758 422.752 7.72395 423.592 7.52645 424.398C7.32895 425.204 6.86677 425.936 6.20047 426.501C5.53417 427.065 4.69483 427.434 3.7924 427.56L3.69993 427.573C3.63336 427.581 3.57632 427.59 3.50985 427.598C5.51058 431.916 8.31866 435.889 11.8111 439.345C16.1255 443.529 21.3399 446.872 27.1348 449.17C32.9297 451.468 39.1829 452.672 45.5109 452.708H45.5204C47.2382 459.454 49.7271 466.02 52.947 472.301H79.477C79.5721 472.034 79.6577 471.759 79.7433 471.493C77.2876 471.632 74.8223 471.499 72.4023 471.097C74.3707 468.915 76.339 466.715 78.3074 464.532C78.3513 464.491 78.3925 464.448 78.431 464.403C79.4294 463.286 80.4374 462.178 81.4358 461.061L81.4364 461.059C81.4896 457.635 81.0547 454.219 80.1426 450.895L80.1418 450.894Z" fill="#FFF2E8"/>
<path d="M471.272 450.894C470.588 450.923 469.91 450.76 469.331 450.429C468.753 450.098 468.301 449.614 468.036 449.043C467.772 448.472 467.708 447.841 467.854 447.236C468 446.631 468.348 446.081 468.851 445.661C468.935 445.359 468.995 445.141 469.08 444.839C469.049 444.773 469.019 444.707 468.989 444.641C468.299 443.17 467.144 441.915 465.668 441.035C464.192 440.155 462.461 439.688 460.693 439.694C458.925 439.7 457.198 440.178 455.729 441.068C454.261 441.958 453.116 443.221 452.439 444.697C449.732 450.588 446.286 456.49 445.437 462.719C445.063 465.473 445.221 468.264 445.903 470.969C439.545 458.436 436.244 444.814 436.223 431.027C436.221 427.568 436.434 424.111 436.86 420.672C437.212 417.854 437.7 415.055 438.324 412.277C441.732 397.201 449.048 383.071 459.672 371.046C464.814 368.511 468.972 364.612 471.587 359.875C472.534 358.172 473.203 356.355 473.574 354.479C472.994 354.547 472.404 354.59 471.824 354.625C471.644 354.633 471.454 354.642 471.273 354.65L471.205 354.653C470.567 354.679 469.935 354.538 469.384 354.247C468.834 353.955 468.388 353.526 468.1 353.011C467.813 352.496 467.697 351.917 467.765 351.344C467.834 350.771 468.084 350.227 468.486 349.78C468.737 349.501 468.987 349.223 469.238 348.945C469.618 348.515 470.008 348.094 470.388 347.664C470.432 347.623 470.474 347.58 470.512 347.535C470.949 347.045 471.387 346.564 471.824 346.074C471.026 344.954 469.952 344.016 468.686 343.333C464.303 341.013 458.255 342.62 455.088 346.203C451.912 349.787 451.313 354.814 452.416 359.291C453.501 363.1 455.295 366.715 457.722 369.981C457.485 370.256 457.237 370.522 457 370.797C452.654 375.847 448.867 381.269 445.691 386.987C446.464 380.582 445.542 374.102 443.003 368.082C440.429 362.471 435.605 357.745 431.356 352.894C426.254 347.068 415.79 349.611 414.891 356.997C414.882 357.068 414.874 357.14 414.865 357.211C415.496 357.533 416.114 357.874 416.719 358.236C417.478 358.694 418.066 359.349 418.406 360.115C418.747 360.88 418.823 361.721 418.625 362.527C418.428 363.332 417.966 364.065 417.299 364.629C416.633 365.194 415.794 365.563 414.891 365.688L414.799 365.701C415.024 367.756 415.421 369.793 415.988 371.794C417.629 377.379 420.53 382.598 424.507 387.123C428.485 391.648 433.455 395.381 439.104 398.089C439.475 398.261 439.836 398.433 440.207 398.596C437.017 406.766 435.016 415.276 434.254 423.912C433.823 429.007 433.849 434.125 434.33 439.217L434.302 439.036C433.085 433.375 429.743 428.266 424.84 424.574C417.559 419.168 407.273 417.178 399.418 412.833C398.583 412.349 397.612 412.09 396.62 412.088C395.628 412.086 394.656 412.34 393.819 412.821C392.981 413.302 392.313 413.989 391.894 414.801C391.474 415.614 391.321 416.517 391.451 417.406C391.461 417.469 391.472 417.533 391.483 417.596C392.654 418.027 393.794 418.523 394.897 419.082C395.528 419.404 396.145 419.746 396.75 420.107C397.509 420.565 398.097 421.22 398.438 421.986C398.778 422.752 398.854 423.592 398.657 424.398C398.459 425.204 397.997 425.936 397.331 426.501C396.664 427.065 395.825 427.434 394.923 427.56L394.83 427.573C394.764 427.581 394.707 427.59 394.64 427.598C396.641 431.916 399.449 435.889 402.941 439.345C407.256 443.529 412.47 446.872 418.265 449.17C424.06 451.468 430.313 452.672 436.641 452.708H436.651C438.368 459.454 440.857 466.02 444.077 472.301H470.607C470.702 472.034 470.788 471.759 470.873 471.493C468.418 471.632 465.952 471.499 463.532 471.097C465.501 468.915 467.469 466.715 469.438 464.532C469.482 464.491 469.523 464.448 469.561 464.403C470.56 463.286 471.568 462.178 472.566 461.061L472.567 461.059C472.62 457.635 472.185 454.219 471.273 450.895L471.272 450.894Z" fill="#FFF2E8"/>
<path d="M369.108 472.144C369.032 472.144 368.956 472.142 368.879 472.141C366.938 472.04 365.114 471.267 363.788 469.982C362.461 468.697 361.734 467 361.758 465.243C361.758 454.551 353.307 448.314 344.931 446.876C336.556 445.439 326.163 448.44 321.825 458.388L317.881 467.335C314.471 470.409 309.851 472.136 305.034 472.136C300.218 472.136 295.598 470.409 292.188 467.335L291.954 467.124L292.099 466.856L361.758 338.06V334.904C361.661 333.931 361.662 332.952 361.759 331.979L361.758 7.59199C361.758 6.70282 361.955 5.8227 362.339 5.00384C362.722 4.18498 363.284 3.44405 363.99 2.82503C364.696 2.20601 365.533 1.72151 366.45 1.40025C367.368 1.07899 368.348 0.92752 369.331 0.954841C371.272 1.05512 373.096 1.82813 374.423 3.11298C375.75 4.39782 376.477 6.09552 376.453 7.85271V332.016C376.55 332.989 376.549 333.968 376.451 334.941L376.453 338.059L446.256 467.124L446.023 467.335C442.613 470.409 437.993 472.136 433.176 472.136C428.36 472.136 423.74 470.409 420.33 467.335L420.226 467.193L416.386 458.388C412.048 448.441 401.656 445.442 393.28 446.876C384.904 448.314 376.453 454.551 376.453 465.243V465.504C376.453 467.264 375.679 468.953 374.302 470.198C372.925 471.443 371.057 472.143 369.108 472.144L369.108 472.144Z" fill="#9F9F9E"/>
<path d="M241.593 236.247H241.594H496.617V235.761L496.618 236.247C499.699 236.243 502.662 235.136 504.855 233.155C507.049 231.172 508.295 228.471 508.298 225.643V225.642V64.5129V64.5123C508.295 61.6837 507.049 58.9834 504.855 57.0003C502.662 55.0186 499.699 53.9114 496.618 53.9082H496.617L241.594 53.9082L241.593 53.9082C238.511 53.9113 235.548 55.0185 233.355 57.0001C231.161 58.9833 229.915 61.6836 229.912 64.5123V64.5129L229.912 225.642L229.912 225.643C229.916 228.471 231.161 231.172 233.356 233.155C235.548 235.136 238.512 236.244 241.593 236.247Z" fill="#FFF2E8" stroke="#FC8019"/>
<path d="M496.617 237H241.594C238.261 236.997 235.067 235.799 232.711 233.67C230.354 231.541 229.029 228.654 229.025 225.643V64.5128C229.029 61.5015 230.354 58.6145 232.71 56.4852C235.067 54.356 238.261 53.1583 241.594 53.1549H496.617C499.949 53.1584 503.144 54.3561 505.5 56.4854C507.856 58.6146 509.182 61.5015 509.185 64.5128V225.643C509.181 228.654 507.856 231.541 505.5 233.67C503.144 235.799 499.949 236.997 496.617 237V237ZM241.594 55.6617C238.997 55.6643 236.507 56.5976 234.671 58.257C232.835 59.9163 231.802 62.1661 231.799 64.5128V225.643C231.802 227.989 232.835 230.239 234.671 231.898C236.507 233.557 238.997 234.491 241.594 234.493H496.617C499.214 234.491 501.703 233.557 503.539 231.898C505.376 230.239 506.408 227.989 506.411 225.643V64.5128C506.409 62.1661 505.376 59.9163 503.54 58.257C501.703 56.5977 499.214 55.6643 496.617 55.6617H241.594Z" fill="#FFF2E8"/>
<path d="M406.812 64.4826H331.399C326.618 64.4777 322.034 62.7592 318.653 59.704C315.273 56.6488 313.371 52.5065 313.366 48.1858V47.8895H424.845V48.1858C424.84 52.5065 422.938 56.6488 419.557 59.704C416.176 62.7592 411.593 64.4777 406.812 64.4826V64.4826Z" fill="#9F9F9E"/>
<path d="M407.139 245.821H331.727C326.946 245.816 322.362 244.098 318.981 241.042C315.601 237.987 313.699 233.845 313.694 229.524V229.228H425.173V229.524C425.167 233.845 423.266 237.987 419.885 241.042C416.504 244.098 411.92 245.816 407.139 245.821V245.821Z" fill="#9F9F9E"/>
<path d="M508 475C508 474.869 507.985 474.738 507.954 474.617C507.924 474.495 507.88 474.385 507.824 474.292C507.767 474.199 507.701 474.125 507.627 474.075C507.554 474.025 507.475 474 507.396 474H229.604C229.444 474 229.29 474.105 229.177 474.293C229.064 474.48 229 474.735 229 475C229 475.265 229.064 475.52 229.177 475.707C229.29 475.895 229.444 476 229.604 476H507.396C507.475 476 507.554 475.975 507.627 475.925C507.701 475.875 507.767 475.801 507.824 475.708C507.88 475.615 507.924 475.505 507.954 475.383C507.985 475.262 508 475.131 508 475V475Z" fill="#CCCCCC"/>
<path d="M170.387 449.826H183.717L190.058 403.361L170.384 403.362L170.387 449.826Z" fill="#9E616A"/>
<path d="M165.872 443.884L186.945 442.747V450.906L206.978 463.41C207.968 464.027 208.713 464.914 209.105 465.942C209.497 466.969 209.516 468.083 209.158 469.12C208.8 470.158 208.085 471.065 207.116 471.709C206.147 472.352 204.976 472.7 203.774 472.7H178.687L174.363 464.629L172.674 472.7H163.215L165.872 443.884Z" fill="#2F2E41"/>
<path d="M125.052 191.381L123.746 197.004L122.636 217.749L167.245 212.29L170.671 188.27L165.935 181.239L125.052 191.381Z" fill="#9E616A"/>
<path d="M102.925 449.826H116.254L122.596 403.361L102.922 403.362L102.925 449.826Z" fill="#9E616A"/>
<path d="M95.6927 367.736L95.6923 367.612L100.682 346.561L103.759 336.081L95.2063 274.723C93.1926 230.144 121.811 208.715 122.036 208.505L122.657 207.922L168.553 206.907C193.247 220.277 190.451 293.409 194.973 343.144C195.296 346.69 199.348 351.925 198.352 355.299C190.45 382.06 192.765 411.001 186.745 411.857L168.288 411.625L158.755 372.528L167.554 342.708C163.652 342.058 160.955 324.816 160.955 324.816C159.254 322.991 153.384 307.472 153.384 307.472L145.556 264.514L132.98 338.402L136.008 355.736L133.502 361.696L122.768 410.902L122.654 411.695L102.418 409.869L95.6927 367.736Z" fill="#2F2E41"/>
<path d="M98.4105 443.884L119.483 442.747V450.906L139.516 463.41C140.506 464.027 141.251 464.914 141.643 465.942C142.035 466.969 142.054 468.083 141.696 469.12C141.338 470.158 140.623 471.065 139.654 471.709C138.686 472.352 137.514 472.7 136.312 472.7H111.225L106.901 464.629L105.212 472.7H95.7535L98.4105 443.884Z" fill="#2F2E41"/>
<path d="M161.854 110.255L173.106 121.552L186.62 144.571L179.981 172.955L182.884 186.275L187.169 200.917C170.656 209.172 151.039 197.771 133.018 192.707L115.287 199.787L116.225 180.299L116.705 131.198C116.724 129.312 117.171 127.45 118.019 125.727C118.867 124.003 120.098 122.456 121.636 121.181C123.173 119.906 124.984 118.93 126.957 118.313C128.929 117.697 131.021 117.454 133.101 117.598V117.598L144.978 109.69L161.854 110.255Z" fill="#FC8019"/>
<path d="M158.703 104.341C171.805 104.341 182.427 94.7424 182.427 82.9017C182.427 71.061 171.805 61.4622 158.703 61.4622C145.6 61.4622 134.979 71.061 134.979 82.9017C134.979 94.7424 145.6 104.341 158.703 104.341Z" fill="#9E616A"/>
<path d="M186.62 75.1644C186.202 77.2651 176.214 78.279 176.515 74.5415C174.572 78.0603 171.668 83.1667 175.367 89.016C173.918 90.442 173.005 92.2455 172.759 94.1685C172.513 96.0915 172.946 98.0356 173.997 99.7227C175.049 101.269 175.931 102.905 176.629 104.607C176.77 105.02 176.871 105.443 176.93 105.872C176.989 106.303 176.92 106.741 176.728 107.139C176.535 107.538 176.228 107.882 175.838 108.136C175.448 108.39 174.99 108.545 174.511 108.584C174.032 108.623 173.551 108.544 173.117 108.357C163.056 103.904 145.512 104.659 134.505 107.376C134.579 105.441 134.549 103.51 134.417 101.584C134.016 103.993 132.94 106.269 131.293 108.198C129.409 108.701 127.561 109.225 125.772 109.742C125.499 109.821 125.207 109.833 124.928 109.775C124.648 109.717 124.391 109.592 124.185 109.412C123.978 109.233 123.828 109.006 123.753 108.756C123.677 108.506 123.678 108.242 123.755 107.992C124.104 106.848 124.169 105.649 123.946 104.48C123.491 102.055 122.142 99.8613 121.189 97.5618C120.236 95.2624 119.693 92.6184 120.859 90.3984C122.67 86.9526 127.774 85.8989 130.025 82.6717C132.555 79.047 130.59 74.3222 130.986 70.048C131.543 64.0045 137.02 59.0942 143.195 56.7218C153.886 52.6133 167.261 55.9405 175.276 63.5347C176.4 62.8487 177.713 62.4577 179.068 62.405C180.423 62.3524 181.768 62.6402 182.953 63.2365C185.322 64.3829 187.023 64.9793 188.086 67.2125C189.017 69.174 187.045 73.0572 186.62 75.1644Z" fill="#2F2E41"/>
<path d="M176.429 327.285L120.613 276.844C119.965 276.257 119.601 275.462 119.601 274.632C119.601 273.803 119.965 273.008 120.613 272.421L159.637 237.155C160.287 236.569 161.167 236.24 162.084 236.24C163.002 236.24 163.882 236.569 164.532 237.155L220.348 287.596C220.996 288.183 221.36 288.978 221.36 289.808C221.36 290.637 220.996 291.432 220.348 292.019L181.324 327.285C180.674 327.871 179.794 328.2 178.877 328.2C177.959 328.2 177.079 327.871 176.429 327.285V327.285Z" fill="white"/>
<path d="M178.877 329.035C178.301 329.037 177.73 328.935 177.198 328.736C176.666 328.537 176.182 328.245 175.776 327.876L119.959 277.435C119.137 276.691 118.676 275.684 118.676 274.633C118.676 273.582 119.137 272.574 119.959 271.831L158.983 236.564C159.806 235.822 160.922 235.405 162.085 235.405C163.247 235.405 164.363 235.822 165.186 236.564L221.002 287.005C221.824 287.749 222.285 288.757 222.285 289.808C222.285 290.858 221.824 291.866 221.002 292.61L181.978 327.876C181.571 328.245 181.088 328.537 180.556 328.736C180.023 328.935 179.453 329.037 178.877 329.035ZM162.084 237.076C161.751 237.075 161.421 237.133 161.113 237.248C160.806 237.363 160.526 237.532 160.291 237.746L121.267 273.012C120.792 273.442 120.525 274.025 120.525 274.633C120.525 275.24 120.792 275.823 121.267 276.253L177.083 326.694C177.567 327.11 178.209 327.342 178.877 327.342C179.544 327.342 180.186 327.11 180.67 326.694L219.694 291.428C220.169 290.998 220.436 290.415 220.436 289.808C220.436 289.2 220.169 288.617 219.694 288.187L163.878 237.746C163.643 237.533 163.363 237.363 163.055 237.248C162.747 237.133 162.417 237.075 162.084 237.076V237.076Z" fill="#E6E6E6"/>
<path d="M155.399 241.847C154.464 240.766 153.804 239.513 153.463 238.177C153.122 236.841 153.11 235.453 153.427 234.112C153.744 232.77 154.382 231.508 155.297 230.414C156.212 229.32 157.382 228.421 158.723 227.779L159.601 143.539L177.024 150.764L173.192 232.237C174.235 234.345 174.386 236.725 173.617 238.927C172.848 241.129 171.212 242.999 169.019 244.184C166.825 245.368 164.227 245.785 161.717 245.354C159.207 244.923 156.959 243.675 155.399 241.847V241.847Z" fill="#9E616A"/>
<path d="M155.868 122.211C155.868 122.211 172.816 114.781 175.16 128.799C177.504 142.816 187.145 179.297 187.145 179.297L157.89 177.428L155.868 122.211Z" fill="#9E616A"/>
<path d="M155.399 241.847C154.464 240.766 153.804 239.513 153.463 238.177C153.122 236.841 153.11 235.453 153.427 234.112C153.744 232.77 154.382 231.508 155.297 230.414C156.212 229.32 157.382 228.421 158.723 227.779L159.601 143.539L177.024 150.764L173.192 232.237C174.235 234.345 174.386 236.725 173.617 238.927C172.848 241.129 171.212 242.999 169.019 244.184C166.825 245.368 164.227 245.785 161.717 245.354C159.207 244.923 156.959 243.675 155.399 241.847V241.847Z" fill="#9E616A"/>
<path d="M155.868 122.211C155.868 122.211 172.816 114.781 175.16 128.799C177.504 142.816 187.145 179.297 187.145 179.297L157.89 177.428L155.868 122.211Z" fill="#FC8019"/>
<path d="M306.876 134.33V127.064L325.094 98.3636H331.358V108.42H327.651L316.166 126.595V126.936H342.054V134.33H306.876ZM327.821 142V132.114L327.991 128.896V98.3636H336.642V142H327.821ZM365.31 142.959C361.646 142.945 358.492 142.043 355.85 140.253C353.222 138.463 351.198 135.871 349.778 132.476C348.371 129.081 347.675 124.997 347.69 120.224C347.69 115.466 348.393 111.411 349.799 108.058C351.219 104.706 353.244 102.156 355.871 100.409C358.513 98.6477 361.66 97.767 365.31 97.767C368.961 97.767 372.1 98.6477 374.728 100.409C377.37 102.17 379.401 104.727 380.822 108.08C382.242 111.418 382.945 115.466 382.931 120.224C382.931 125.011 382.221 129.102 380.8 132.497C379.394 135.892 377.377 138.484 374.749 140.274C372.121 142.064 368.975 142.959 365.31 142.959ZM365.31 135.31C367.81 135.31 369.806 134.053 371.298 131.538C372.789 129.024 373.528 125.253 373.513 120.224C373.513 116.915 373.173 114.159 372.491 111.957C371.823 109.756 370.871 108.101 369.636 106.993C368.414 105.885 366.972 105.331 365.31 105.331C362.825 105.331 360.836 106.574 359.344 109.06C357.853 111.545 357.1 115.267 357.086 120.224C357.086 123.577 357.42 126.375 358.087 128.619C358.769 130.849 359.728 132.526 360.964 133.648C362.2 134.756 363.648 135.31 365.31 135.31ZM388.849 134.33V127.064L407.066 98.3636H413.331V108.42H409.623L398.139 126.595V126.936H424.027V134.33H388.849ZM409.794 142V132.114L409.964 128.896V98.3636H418.615V142H409.794Z" fill="black"/>
<path d="M293.264 178V163.455H299.003C300.106 163.455 301.046 163.665 301.822 164.087C302.599 164.503 303.191 165.083 303.598 165.827C304.01 166.565 304.216 167.418 304.216 168.384C304.216 169.349 304.008 170.202 303.591 170.94C303.174 171.679 302.571 172.254 301.78 172.666C300.994 173.078 300.042 173.284 298.925 173.284H295.267V170.82H298.428C299.019 170.82 299.507 170.718 299.891 170.514C300.279 170.306 300.568 170.019 300.757 169.655C300.951 169.286 301.048 168.862 301.048 168.384C301.048 167.901 300.951 167.479 300.757 167.119C300.568 166.755 300.279 166.473 299.891 166.274C299.502 166.071 299.01 165.969 298.413 165.969H296.339V178H293.264ZM308.974 178.206C308.278 178.206 307.658 178.085 307.114 177.844C306.569 177.598 306.138 177.235 305.821 176.757C305.509 176.274 305.352 175.673 305.352 174.953C305.352 174.347 305.464 173.838 305.686 173.426C305.909 173.014 306.212 172.683 306.595 172.432C306.979 172.181 307.414 171.991 307.902 171.864C308.394 171.736 308.911 171.646 309.45 171.594C310.085 171.527 310.596 171.466 310.984 171.409C311.373 171.348 311.654 171.258 311.83 171.139C312.005 171.021 312.092 170.846 312.092 170.614V170.571C312.092 170.121 311.95 169.773 311.666 169.527C311.387 169.281 310.989 169.158 310.473 169.158C309.929 169.158 309.495 169.278 309.173 169.52C308.851 169.757 308.638 170.055 308.534 170.415L305.736 170.188C305.878 169.525 306.157 168.952 306.574 168.469C306.991 167.981 307.528 167.607 308.186 167.347C308.849 167.081 309.616 166.949 310.487 166.949C311.093 166.949 311.673 167.02 312.227 167.162C312.786 167.304 313.281 167.524 313.712 167.822C314.147 168.121 314.491 168.504 314.741 168.973C314.992 169.437 315.118 169.993 315.118 170.642V178H312.249V176.487H312.163C311.988 176.828 311.754 177.129 311.46 177.389C311.167 177.645 310.814 177.846 310.402 177.993C309.99 178.135 309.514 178.206 308.974 178.206ZM309.841 176.118C310.286 176.118 310.679 176.03 311.02 175.855C311.361 175.675 311.628 175.434 311.822 175.131C312.017 174.828 312.114 174.484 312.114 174.101V172.943C312.019 173.005 311.889 173.062 311.723 173.114C311.562 173.161 311.38 173.206 311.176 173.249C310.973 173.286 310.769 173.322 310.565 173.355C310.362 173.384 310.177 173.41 310.011 173.433C309.656 173.485 309.346 173.568 309.081 173.682C308.816 173.795 308.61 173.949 308.463 174.143C308.316 174.333 308.243 174.57 308.243 174.854C308.243 175.266 308.392 175.58 308.69 175.798C308.993 176.011 309.377 176.118 309.841 176.118ZM322.38 182.318C321.4 182.318 320.559 182.183 319.859 181.913C319.163 181.648 318.609 181.286 318.197 180.827C317.785 180.367 317.517 179.851 317.394 179.278L320.192 178.902C320.278 179.12 320.413 179.323 320.597 179.513C320.782 179.702 321.026 179.854 321.329 179.967C321.637 180.086 322.011 180.145 322.451 180.145C323.109 180.145 323.651 179.984 324.077 179.662C324.508 179.345 324.724 178.812 324.724 178.064V176.068H324.596C324.463 176.371 324.264 176.658 323.999 176.928C323.734 177.197 323.393 177.418 322.977 177.588C322.56 177.759 322.063 177.844 321.485 177.844C320.666 177.844 319.92 177.654 319.248 177.276C318.58 176.892 318.048 176.307 317.65 175.521C317.257 174.731 317.06 173.732 317.06 172.524C317.06 171.288 317.262 170.256 317.664 169.428C318.067 168.599 318.602 167.979 319.269 167.567C319.942 167.155 320.678 166.949 321.478 166.949C322.089 166.949 322.6 167.053 323.012 167.261C323.424 167.465 323.755 167.721 324.006 168.028C324.262 168.331 324.459 168.63 324.596 168.923H324.71V167.091H327.714V178.107C327.714 179.035 327.487 179.811 327.032 180.436C326.577 181.061 325.948 181.53 325.143 181.842C324.343 182.16 323.422 182.318 322.38 182.318ZM322.444 175.571C322.932 175.571 323.344 175.45 323.68 175.209C324.021 174.963 324.281 174.612 324.461 174.158C324.646 173.698 324.738 173.149 324.738 172.51C324.738 171.871 324.648 171.317 324.468 170.848C324.288 170.375 324.028 170.008 323.687 169.747C323.346 169.487 322.932 169.357 322.444 169.357C321.947 169.357 321.528 169.491 321.187 169.761C320.846 170.027 320.588 170.396 320.413 170.869C320.237 171.343 320.15 171.89 320.15 172.51C320.15 173.14 320.237 173.684 320.413 174.143C320.593 174.598 320.851 174.951 321.187 175.202C321.528 175.448 321.947 175.571 322.444 175.571ZM335.093 178.213C333.971 178.213 333.005 177.986 332.195 177.531C331.39 177.072 330.77 176.423 330.335 175.585C329.899 174.742 329.681 173.746 329.681 172.595C329.681 171.473 329.899 170.488 330.335 169.641C330.77 168.793 331.383 168.133 332.174 167.659C332.969 167.186 333.902 166.949 334.972 166.949C335.692 166.949 336.362 167.065 336.982 167.297C337.607 167.524 338.152 167.867 338.616 168.327C339.085 168.786 339.449 169.364 339.71 170.06C339.97 170.751 340.1 171.561 340.1 172.489V173.32H330.888V171.445H337.252C337.252 171.009 337.157 170.623 336.968 170.287C336.779 169.951 336.516 169.688 336.18 169.499C335.848 169.304 335.462 169.207 335.022 169.207C334.563 169.207 334.156 169.314 333.8 169.527C333.45 169.735 333.175 170.017 332.977 170.372C332.778 170.723 332.676 171.113 332.671 171.544V173.327C332.671 173.866 332.771 174.333 332.969 174.726C333.173 175.119 333.46 175.422 333.829 175.635C334.198 175.848 334.636 175.955 335.143 175.955C335.479 175.955 335.787 175.907 336.066 175.812C336.345 175.718 336.585 175.576 336.783 175.386C336.982 175.197 337.134 174.965 337.238 174.69L340.036 174.875C339.894 175.547 339.603 176.134 339.163 176.636C338.727 177.134 338.164 177.522 337.472 177.801C336.786 178.076 335.993 178.213 335.093 178.213ZM358.926 163.455V178H356.27L349.942 168.845H349.836V178H346.76V163.455H349.459L355.738 172.602H355.865V163.455H358.926ZM366.339 178.213C365.236 178.213 364.282 177.979 363.477 177.51C362.677 177.036 362.059 176.378 361.624 175.536C361.188 174.688 360.97 173.705 360.97 172.588C360.97 171.461 361.188 170.476 361.624 169.634C362.059 168.786 362.677 168.128 363.477 167.659C364.282 167.186 365.236 166.949 366.339 166.949C367.443 166.949 368.394 167.186 369.195 167.659C370 168.128 370.62 168.786 371.055 169.634C371.491 170.476 371.709 171.461 371.709 172.588C371.709 173.705 371.491 174.688 371.055 175.536C370.62 176.378 370 177.036 369.195 177.51C368.394 177.979 367.443 178.213 366.339 178.213ZM366.354 175.869C366.856 175.869 367.275 175.727 367.611 175.443C367.947 175.154 368.2 174.761 368.371 174.264C368.546 173.767 368.634 173.201 368.634 172.567C368.634 171.932 368.546 171.366 368.371 170.869C368.2 170.372 367.947 169.979 367.611 169.69C367.275 169.402 366.856 169.257 366.354 169.257C365.847 169.257 365.421 169.402 365.075 169.69C364.734 169.979 364.476 170.372 364.301 170.869C364.131 171.366 364.045 171.932 364.045 172.567C364.045 173.201 364.131 173.767 364.301 174.264C364.476 174.761 364.734 175.154 365.075 175.443C365.421 175.727 365.847 175.869 366.354 175.869ZM379.479 167.091V169.364H372.909V167.091H379.479ZM374.401 164.477H377.426V174.648C377.426 174.927 377.469 175.145 377.554 175.301C377.639 175.453 377.758 175.559 377.909 175.621C378.065 175.682 378.245 175.713 378.449 175.713C378.591 175.713 378.733 175.701 378.875 175.678C379.017 175.649 379.126 175.628 379.202 175.614L379.678 177.865C379.526 177.912 379.313 177.967 379.038 178.028C378.764 178.095 378.43 178.135 378.037 178.149C377.308 178.178 376.669 178.08 376.119 177.858C375.575 177.635 375.151 177.29 374.848 176.821C374.545 176.352 374.396 175.76 374.401 175.045V164.477ZM386.135 178V163.455H395.766V165.99H389.211V169.456H395.127V171.991H389.211V178H386.135ZM401.906 178.213C400.803 178.213 399.849 177.979 399.044 177.51C398.243 177.036 397.626 176.378 397.19 175.536C396.754 174.688 396.537 173.705 396.537 172.588C396.537 171.461 396.754 170.476 397.19 169.634C397.626 168.786 398.243 168.128 399.044 167.659C399.849 167.186 400.803 166.949 401.906 166.949C403.009 166.949 403.961 167.186 404.761 167.659C405.566 168.128 406.186 168.786 406.622 169.634C407.057 170.476 407.275 171.461 407.275 172.588C407.275 173.705 407.057 174.688 406.622 175.536C406.186 176.378 405.566 177.036 404.761 177.51C403.961 177.979 403.009 178.213 401.906 178.213ZM401.92 175.869C402.422 175.869 402.841 175.727 403.177 175.443C403.513 175.154 403.767 174.761 403.937 174.264C404.112 173.767 404.2 173.201 404.2 172.567C404.2 171.932 404.112 171.366 403.937 170.869C403.767 170.372 403.513 169.979 403.177 169.69C402.841 169.402 402.422 169.257 401.92 169.257C401.413 169.257 400.987 169.402 400.642 169.69C400.301 169.979 400.043 170.372 399.868 170.869C399.697 171.366 399.612 171.932 399.612 172.567C399.612 173.201 399.697 173.767 399.868 174.264C400.043 174.761 400.301 175.154 400.642 175.443C400.987 175.727 401.413 175.869 401.92 175.869ZM416.238 173.355V167.091H419.264V178H416.359V176.018H416.245C415.999 176.658 415.59 177.171 415.017 177.56C414.449 177.948 413.755 178.142 412.936 178.142C412.207 178.142 411.565 177.976 411.011 177.645C410.457 177.313 410.024 176.842 409.711 176.232C409.404 175.621 409.247 174.889 409.243 174.037V167.091H412.268V173.497C412.273 174.141 412.446 174.65 412.787 175.024C413.127 175.398 413.584 175.585 414.157 175.585C414.522 175.585 414.863 175.502 415.18 175.337C415.497 175.166 415.753 174.915 415.947 174.584C416.146 174.252 416.243 173.843 416.238 173.355ZM424.71 171.693V178H421.684V167.091H424.567V169.016H424.695C424.937 168.381 425.342 167.879 425.91 167.51C426.478 167.136 427.167 166.949 427.977 166.949C428.734 166.949 429.395 167.115 429.958 167.446C430.522 167.777 430.96 168.251 431.272 168.866C431.585 169.477 431.741 170.206 431.741 171.054V178H428.715V171.594C428.72 170.926 428.549 170.405 428.204 170.031C427.858 169.652 427.382 169.463 426.776 169.463C426.369 169.463 426.009 169.551 425.697 169.726C425.389 169.901 425.147 170.157 424.972 170.493C424.802 170.824 424.714 171.224 424.71 171.693ZM438.145 178.178C437.317 178.178 436.566 177.964 435.894 177.538C435.226 177.107 434.696 176.475 434.303 175.642C433.915 174.804 433.721 173.777 433.721 172.56C433.721 171.31 433.922 170.27 434.324 169.442C434.727 168.608 435.262 167.986 435.929 167.574C436.602 167.157 437.338 166.949 438.138 166.949C438.749 166.949 439.258 167.053 439.665 167.261C440.077 167.465 440.408 167.721 440.659 168.028C440.915 168.331 441.109 168.63 441.242 168.923H441.334V163.455H444.353V178H441.37V176.253H441.242C441.1 176.556 440.899 176.857 440.638 177.155C440.382 177.448 440.049 177.692 439.637 177.886C439.23 178.08 438.732 178.178 438.145 178.178ZM439.104 175.77C439.592 175.77 440.004 175.637 440.34 175.372C440.681 175.102 440.941 174.726 441.121 174.243C441.306 173.76 441.398 173.194 441.398 172.545C441.398 171.897 441.308 171.333 441.128 170.855C440.948 170.377 440.688 170.008 440.347 169.747C440.006 169.487 439.592 169.357 439.104 169.357C438.607 169.357 438.188 169.491 437.847 169.761C437.506 170.031 437.248 170.405 437.073 170.884C436.898 171.362 436.81 171.916 436.81 172.545C436.81 173.18 436.898 173.741 437.073 174.229C437.253 174.712 437.511 175.09 437.847 175.365C438.188 175.635 438.607 175.77 439.104 175.77Z" fill="black"/>
<path d="M554.251 532.578C532.295 522.267 504.176 524.287 484 537.169C522.485 543.236 560.549 551.354 597.997 561.48C582.446 553.153 570.282 540.107 554.251 532.578Z" fill="#F2F2F2"/>
</svg>
