<svg width="1097" height="634" viewBox="0 0 1097 634" fill="none" xmlns="http://www.w3.org/2000/svg">
<path d="M986.815 72.8192C986.696 72.8194 986.576 72.8025 986.462 72.769C676.908 -16.6836 404.078 -4.9861 229.712 20.5788C205.983 24.0566 182.19 28.0735 158.994 32.5187C153.072 33.6522 146.929 34.8672 140.734 36.1323C133.336 37.6378 126.037 39.1881 119.038 40.7385C116.015 41.3924 113.051 42.0516 110.146 42.7161C105.746 43.7085 101.281 44.7428 96.4956 45.8794C91.1477 47.1393 85.7141 48.4609 80.3423 49.8075C80.3226 49.8138 80.3026 49.819 80.2822 49.8231L80.2828 49.8242C74.2153 51.3379 68.1797 52.8957 62.3431 54.4512C59.1841 55.2849 56.1338 56.1071 53.212 56.9188C52.8856 57.0013 52.5964 57.0807 52.3031 57.1622L51.6754 57.3367C51.3119 57.438 50.9529 57.5372 50.5939 57.6313L50.571 57.6375L50.5716 57.6386L49.6215 57.9082C48.4884 58.2216 47.3829 58.5277 46.2956 58.8328C17.5596 66.9271 1.76242 72.6855 1.60636 72.7419C1.46365 72.7942 1.31108 72.8203 1.15734 72.8186C1.0036 72.817 0.85172 72.7878 0.71036 72.7325C0.568999 72.6773 0.440922 72.5972 0.33346 72.4967C0.225997 72.3962 0.141243 72.2774 0.084039 72.147C0.026835 72.0166 -0.00168592 71.8771 7.70093e-05 71.7367C0.00183994 71.5962 0.0338673 71.4574 0.0943288 71.3282C0.15479 71.1991 0.242494 71.082 0.352449 70.9839C0.462405 70.8857 0.592446 70.8082 0.735155 70.7559C0.892364 70.6995 16.7667 64.9119 45.6073 56.7872C46.6986 56.4811 47.807 56.175 48.9435 55.8606L49.8261 55.6099C49.8564 55.5994 49.8867 55.5911 49.9176 55.5827C50.2749 55.4897 50.6316 55.3905 50.994 55.2902L51.6228 55.1157C51.9361 55.029 52.2448 54.9433 52.5609 54.8639C55.4626 54.0574 58.5233 53.2332 61.6903 52.3963C67.5292 50.8397 73.5704 49.2821 79.6426 47.7662C79.6614 47.76 79.6809 47.7558 79.6997 47.7506V47.7495C85.0904 46.3987 90.544 45.0719 95.909 43.8078C100.702 42.6702 105.176 41.6338 109.583 40.6393C112.5 39.9759 115.47 39.3153 118.492 38.6575C125.499 37.105 132.813 35.5526 140.224 34.044C146.429 32.7779 152.582 31.5597 158.514 30.4252C181.745 25.9727 205.576 21.9495 229.341 18.4665C403.957 -7.13501 677.177 -18.8514 987.168 70.7297C987.434 70.8066 987.662 70.9681 987.809 71.1851C987.957 71.402 988.015 71.66 987.972 71.9124C987.93 72.1649 987.79 72.3951 987.577 72.5614C987.365 72.7277 987.095 72.8191 986.815 72.8192V72.8192Z" fill="#CCCCCC"/>
<path d="M603.262 266.861C594.283 253.291 583.643 238.803 566.981 234.372C547.684 229.241 527.862 239.434 511.048 249.493C460.765 279.575 412.342 312.176 366 347.145L366.051 347.672C402.13 345.399 438.209 343.125 474.288 340.852C500.355 339.209 527.318 337.34 550.354 326.072C559.095 321.796 567.616 316.085 577.522 315.687C589.828 315.193 600.559 323.046 608.992 331.251C658.874 379.788 673.309 454.013 729.273 496.656C693.984 417.134 651.848 340.294 603.262 266.861Z" fill="#F2F2F2"/>
<path d="M348.242 186.779C345.899 184.596 343.57 182.414 341.212 180.231C322.613 163.042 302.656 146.053 277.116 136.199C264.938 131.352 251.645 128.776 238.157 128.652C224.216 128.689 210.588 131.745 197.706 136.024C191.616 138.057 185.66 140.365 179.794 142.822C173.092 145.641 166.509 148.647 159.956 151.678C147.656 157.366 135.516 163.304 123.535 169.491C99.6969 181.802 76.6051 195.053 54.2599 209.244C42.6763 216.604 31.3318 224.205 20.2264 232.046C9.89723 239.331 -0.223035 246.811 -10.1344 254.486C-12.2539 256.12 -15.4185 253.476 -13.299 251.842C-10.6868 249.809 -8.04476 247.788 -5.40269 245.792C2.06068 240.154 9.64357 234.624 17.346 229.202C31.3916 219.298 45.8009 209.777 60.5739 200.638C83.5464 186.418 107.31 173.162 131.864 160.871C144.134 154.734 156.573 148.855 169.181 143.234C172.987 141.537 176.839 139.878 180.734 138.307C189.574 134.581 198.759 131.456 208.199 128.964C221.573 125.349 235.722 124.187 249.681 125.558C263.159 127.197 276.145 130.951 287.953 136.623C313.03 148.335 332.479 166.447 351.407 184.122C353.318 185.919 350.168 188.575 348.242 186.779Z" fill="#E4E4E4"/>
<path d="M771.951 407.445L815.157 393.005L836.609 385.835C843.596 383.5 850.565 380.842 857.788 379.17C864.064 377.532 870.728 377.61 876.957 379.394C882.512 381.272 887.597 384.152 891.909 387.863C896.314 391.57 900.413 395.569 904.172 399.83C908.843 404.958 913.444 410.141 918.066 415.306C937.143 436.624 956.095 458.034 974.922 479.537C993.748 501.039 1012.45 522.633 1031.02 544.318C1049.64 566.056 1068.14 587.885 1086.5 609.805C1088.75 612.49 1091 615.177 1093.24 617.865C1094.48 619.35 1097.28 617.886 1096.02 616.38C1077.52 594.24 1058.9 572.19 1040.14 550.231C1021.33 528.219 1002.4 506.301 983.337 484.476C964.274 462.652 945.082 440.922 925.762 419.287C920.948 413.897 916.127 408.513 911.298 403.135C907.224 398.598 903.196 394.013 898.728 389.79C890.526 382.039 880.28 375.19 868.014 375.004C860.803 374.895 853.823 376.986 847.123 379.201C839.9 381.588 832.694 384.021 825.48 386.432L781.972 400.973L771.095 404.608C769.165 405.253 769.999 408.097 771.951 407.445L771.951 407.445Z" fill="#E4E4E4"/>
<path d="M215.519 212.524L211.292 215.663C212.722 214.565 214.208 213.534 215.735 212.559C215.663 212.548 215.591 212.535 215.519 212.524Z" fill="#F2F2F2"/>
<path d="M870.587 412.917C866.334 408.186 861.735 403.233 855.374 401.311L849.434 401.525C894.646 474.526 955.708 538.313 1028.87 588.972C976.11 530.287 923.349 471.602 870.587 412.917Z" fill="#F2F2F2"/>
<path d="M501.255 373.892C504.004 383.017 510.196 390.959 518.736 396.313C522.037 398.367 525.944 400.338 527.073 403.839C527.667 406.07 527.301 408.425 526.05 410.418C524.802 412.384 523.283 414.197 521.53 415.811L521.37 416.358C513.176 411.922 505.382 406.31 500.856 398.652C496.33 390.995 495.698 380.96 501.255 373.892" fill="#F2F2F2"/>
<path d="M774.04 591.056C776.789 600.181 782.981 608.123 791.521 613.478C794.822 615.532 798.729 617.502 799.858 621.003C800.453 623.235 800.086 625.59 798.836 627.582C797.587 629.549 796.068 631.361 794.315 632.975L794.155 633.523C785.962 629.086 778.167 623.474 773.641 615.817C769.115 608.16 768.483 598.124 774.04 591.056" fill="#F2F2F2"/>
<path d="M34.9814 359C37.7299 368.125 43.922 376.067 52.462 381.421C55.7637 383.475 59.67 385.446 60.7996 388.947C61.3937 391.178 61.0276 393.533 59.7768 395.526C58.5282 397.492 57.0089 399.305 55.2562 400.919L55.0962 401.466C46.9028 397.03 39.1079 391.418 34.582 383.76C30.056 376.103 29.4242 366.067 34.9814 359" fill="#F2F2F2"/>
<path d="M823.109 149.117C856.085 149.117 882.817 124.69 882.817 94.5585C882.817 64.4267 856.085 40 823.109 40C790.133 40 763.401 64.4267 763.401 94.5585C763.401 124.69 790.133 149.117 823.109 149.117Z" fill="#FC8019"/>
<path d="M930.86 52.6986C901.922 49.1246 868.886 63.4164 861.386 89.2032C859.495 84.6183 856.059 80.7011 851.573 78.0176C847.087 75.3341 841.784 74.0232 836.429 74.2743C831.074 74.5254 825.945 76.3254 821.783 79.4144C817.621 82.5034 814.642 86.7214 813.275 91.459L816.588 93.6271C878.6 105.881 942.792 105.615 1004.68 92.85C984.551 73.5203 959.797 56.2726 930.86 52.6986Z" fill="#F0F0F0"/>
<path d="M806.76 125.443C777.823 121.869 744.786 136.161 737.286 161.948C735.396 157.363 731.96 153.446 727.473 150.762C722.987 148.079 717.684 146.768 712.329 147.019C706.974 147.27 701.845 149.07 697.684 152.159C693.522 155.248 690.542 159.466 689.176 164.204L692.489 166.372C754.5 178.625 818.692 178.36 880.58 165.595C860.452 146.265 835.697 129.017 806.76 125.443Z" fill="#F0F0F0"/>
<path d="M895.23 584.452C889.46 577.631 887.102 576.033 881.41 569.148C835.065 513.032 791.504 455.021 750.728 395.113C723.031 354.427 696.708 312.959 671.758 270.71C659.879 250.624 648.327 230.38 637.1 209.979C628.388 194.161 619.87 178.247 611.547 162.24C609.167 157.668 606.854 153.074 604.553 148.471C599.13 137.645 593.809 126.766 588.094 116.088C581.583 103.916 573.657 91.1564 561.699 82.9791C556.258 79.1049 549.751 76.7608 542.939 76.2208C533.205 75.6322 524.224 79.395 515.781 83.5046C454.01 113.66 396.181 151.466 343.874 194.486C291.434 237.603 244.561 286.315 204.211 339.628C202.976 341.278 200.057 339.701 201.303 338.041C206.209 331.545 211.213 325.12 216.314 318.764C279.738 239.794 357.506 171.883 446.062 118.137C460.96 109.098 476.139 100.483 491.598 92.2915C499.39 88.1608 507.215 84.0827 515.175 80.2569C522.978 76.5046 531.263 73.1306 540.177 73.0045C570.513 72.5631 586.219 104.726 597.008 126.367C600.399 133.178 603.831 139.968 607.303 146.737C620.428 172.435 634.057 197.899 648.192 223.128C656.915 238.705 665.83 254.19 674.935 269.585C703.271 317.524 733.389 364.492 765.289 410.49C807.548 471.421 849.469 525.245 897.61 582.224C898.935 583.8 896.566 586.05 895.23 584.452Z" fill="#E4E4E4"/>
</svg>
